<?xml version="1.0" encoding="UTF-8" standalone="no"?>
<svg
   width="24"
   height="24"
   viewBox="0 0 24 24"
   version="1.1"
   id="svg1"
   sodipodi:docname="bluesky-circle-color.svg"
   inkscape:version="1.4.2 (f4327f4, 2025-05-13)"
   xml:space="preserve"
   xmlns:inkscape="http://www.inkscape.org/namespaces/inkscape"
   xmlns:sodipodi="http://sodipodi.sourceforge.net/DTD/sodipodi-0.dtd"
   xmlns="http://www.w3.org/2000/svg"
   xmlns:svg="http://www.w3.org/2000/svg"><defs
     id="defs1" /><sodipodi:namedview
     id="namedview1"
     pagecolor="#ffffff"
     bordercolor="#666666"
     borderopacity="1.0"
     inkscape:showpageshadow="2"
     inkscape:pageopacity="0.0"
     inkscape:pagecheckerboard="0"
     inkscape:deskcolor="#d1d1d1"
     inkscape:zoom="4.1510417"
     inkscape:cx="-42.278544"
     inkscape:cy="73.35508"
     inkscape:window-width="1920"
     inkscape:window-height="1009"
     inkscape:window-x="-8"
     inkscape:window-y="-8"
     inkscape:window-maximized="1"
     inkscape:current-layer="svg1" /><path
     id="path1"
     style="fill:#5aa877;fill-opacity:1"
     d="M 12 0 C 5.3730132 0 0 5.3730132 0 12 C 0 18.626986 5.3730132 24 12 24 C 18.626986 24 24 18.626986 24 12 C 24 5.3730132 18.626986 0 12 0 z M 6.1894531 6.2460938 C 6.7923747 6.255209 7.5367441 6.6335767 8.1054688 7.0605469 C 9.6819192 8.243987 11.377414 10.643986 12 11.931641 C 12.622539 10.643892 14.318129 8.2440108 15.894531 7.0605469 C 17.031933 6.2066065 18.875 5.5459581 18.875 7.6484375 C 18.875 8.0682837 18.633388 11.177115 18.492188 11.681641 C 18.001458 13.435558 16.213959 13.882083 14.623047 13.611328 C 17.403894 14.084516 18.111742 15.653025 16.583984 17.220703 C 13.682351 20.198127 12.413004 16.473845 12.087891 15.519531 C 12.028291 15.344582 12.000412 15.262441 12 15.332031 C 11.99958 15.262438 11.971709 15.344583 11.912109 15.519531 C 11.586853 16.473845 10.317483 20.198032 7.4160156 17.220703 C 5.8882826 15.653025 6.5961531 14.08461 9.3769531 13.611328 C 7.7860889 13.882083 5.998613 13.435561 5.5078125 11.681641 C 5.3666152 11.177162 5.125 8.0683311 5.125 7.6484375 C 5.125 6.5971978 5.5865316 6.2369785 6.1894531 6.2460938 z " /></svg>
