<?xml version="1.0" encoding="UTF-8" standalone="no"?>
<!-- Created with Inkscape (http://www.inkscape.org/) -->

<svg
   width="259"
   height="85"
   viewBox="0 0 68.527065 22.48959"
   version="1.1"
   id="svg5"
   xml:space="preserve"
   xmlns:xlink="http://www.w3.org/1999/xlink"
   xmlns="http://www.w3.org/2000/svg"
   xmlns:svg="http://www.w3.org/2000/svg"><defs
     id="defs2"><linearGradient
       id="linearGradient5"><stop
         style="stop-color:#57550b;stop-opacity:1;"
         offset="0.03543743"
         id="stop1" /><stop
         style="stop-color:#a1e400;stop-opacity:1;"
         offset="0.15737051"
         id="stop2" /><stop
         style="stop-color:#0eecd3;stop-opacity:1;"
         offset="0.33155563"
         id="stop3" /><stop
         style="stop-color:#ab41ff;stop-opacity:1;"
         offset="0.52239949"
         id="stop4" /><stop
         style="stop-color:#ff002f;stop-opacity:1;"
         offset="0.93076921"
         id="stop6" /></linearGradient><linearGradient
       id="linearGradient5-1"><stop
         style="stop-color:#43a91c;stop-opacity:1;"
         offset="0"
         id="stop8" /><stop
         style="stop-color:#56be23;stop-opacity:1;"
         offset="0.18616343"
         id="stop5" /><stop
         style="stop-color:#43bc5d;stop-opacity:1;"
         offset="0.36810049"
         id="stop7" /><stop
         style="stop-color:#5ba88d;stop-opacity:1;"
         offset="0.60656345"
         id="stop9" /><stop
         style="stop-color:#79a522;stop-opacity:1;"
         offset="0.90862083"
         id="stop10" /></linearGradient><linearGradient
       xlink:href="#linearGradient5"
       id="linearGradient6"
       x1="52.082581"
       y1="81.745499"
       x2="110.3859"
       y2="106.90641"
       gradientUnits="userSpaceOnUse" /><filter
       style="color-interpolation-filters:sRGB;"
       id="filter1"
       x="-0.00058718618"
       y="-0.0018632287"
       width="1.0011744"
       height="1.0037265"><feGaussianBlur
         stdDeviation="0.016357696"
         result="blur"
         id="feGaussianBlur1" /></filter><filter
       style="color-interpolation-filters:sRGB;"
       id="filter23"
       x="-0.013106976"
       y="-0.041590377"
       width="1.026214"
       height="1.0831808"><feGaussianBlur
         stdDeviation="0.20513108"
         id="feGaussianBlur23"
         result="fbSourceGraphic" /><feColorMatrix
         result="fbSourceGraphicAlpha"
         in="fbSourceGraphic"
         values="0 0 0 -1 0 0 0 0 -1 0 0 0 0 -1 0 0 0 0 1 0"
         id="feColorMatrix51" /><feColorMatrix
         id="feColorMatrix52"
         in="fbSourceGraphic"
         values="1 0 0 0 0 0 1 0 0 0 0 0 1 0 0 -0.2125 -0.7154 -0.0721 1 0 "
         result="colormatrix" /><feComposite
         id="feComposite52"
         in="fbSourceGraphic"
         in2="colormatrix"
         operator="arithmetic"
         k2="1"
         k3="0"
         k4="0"
         result="composite" /><feGaussianBlur
         id="feGaussianBlur52"
         stdDeviation="0.15 0.01"
         result="blur1" /><feGaussianBlur
         id="feGaussianBlur53"
         in="composite"
         stdDeviation="0.01 0.15"
         result="blur2" /><feBlend
         id="feBlend53"
         in="blur2"
         in2="blur1"
         mode="multiply"
         result="blend" /></filter><linearGradient
       xlink:href="#linearGradient5-1"
       id="linearGradient12"
       x1="47.568851"
       y1="90.275368"
       x2="114.42749"
       y2="90.275368"
       gradientUnits="userSpaceOnUse" /></defs><g
     id="layer5"
     transform="translate(-77.002476,-71.850855)"
     style="fill:#ffffff"><path
       id="path23"
       style="font-style:normal;font-weight:bold;font-size:8.12743px;line-height:1.25;font-family:Georgia;-inkscape-font-specification:'Georgia Bold';letter-spacing:0.235479px;display:inline;opacity:0.45465116;mix-blend-mode:normal;fill:url(#linearGradient6);fill-opacity:1;stroke-width:0.246047;filter:url(#filter23)"
       d="m 59.06131,79.740355 c -0.04545,-0.0025 0.443087,0.07728 0.793525,0.701139 -0.549896,-0.521963 -1.012679,-0.94635 -2.571103,-0.530521 1.922466,-0.175093 3.325538,1.844034 2.780684,3.094449 -0.02392,-0.503787 -0.206308,-0.888466 -0.541204,-1.132091 -0.01803,-0.01312 0.148326,0.1839 0.149848,0.326196 -0.350423,-0.608493 -0.745906,-0.663037 -1.345027,-0.528966 1.610277,0.383849 1.186119,1.305764 1.508264,1.458286 0.01944,0.0092 -0.07753,0.06049 -0.08806,0.07416 -0.558647,0.320568 -1.396915,0.636302 -2.11229,0.855679 -1.174589,0.360199 -2.436543,0.831779 -3.447532,1.533482 -1.575998,1.093863 -1.827153,2.03012 -2.214763,3.298775 -0.603689,1.975883 0.271971,5.102676 0.266224,5.308844 h 0.818757 c 0.08148,-0.309462 0.136758,-0.565945 0.146244,-0.703732 -0.06656,-1.192235 -0.05622,-3.336719 0.171475,-4.313144 0.08324,3.02785 0.106822,4.32137 0.56798,4.174161 1.408226,-1.930579 1.047683,-2.211511 0.96706,-4.489985 0.0068,-0.641462 0.122896,-1.272307 0.232754,-1.903239 0.02475,2.477685 0.06602,3.99955 0.506187,4.071998 0.582587,-0.481109 1.071291,-1.18874 1.193634,-1.558374 -0.0771,-0.394202 -0.113378,-2.685491 0.214731,-4.439162 0.0059,0.177561 0.01691,0.352396 0.03244,0.522742 0.0052,0.05636 0.01096,0.112123 0.01699,0.167506 0.0064,0.05822 0.01334,0.115669 0.0206,0.172692 0.162816,1.279973 0.54306,2.246443 0.642132,2.278182 0.910362,-0.342525 3.257439,-3.350023 3.611799,-4.071479 0.04003,-0.08149 0.06886,-0.213422 0.07518,-0.305452 5.01e-4,-0.0073 -0.204769,0.125705 -0.453663,0.150911 0.911475,-0.333261 1.709021,-1.658355 1.370259,-2.39331 -0.0071,-0.01528 0.0098,0.522764 -0.139034,0.698546 0.116615,-0.597277 -0.07891,-1.219874 -0.659125,-1.557337 0.826359,0.783723 0.705817,1.712973 -0.504643,2.192095 0.196031,-0.139729 0.643445,-1.671742 -0.311025,-2.550444 -0.0322,-0.02964 0.127118,0.249519 0.05047,0.617645 -0.06549,-0.946106 -0.800245,-1.147562 -1.749771,-1.220251 z m 14.380253,2.540073 c -0.350667,-4.53e-4 -0.7077,0.07592 -1.042756,0.222995 -0.07846,0.03428 -0.1549,0.07245 -0.229664,0.113572 -0.379199,0.209427 -0.665922,0.481825 -0.895998,0.814192 -0.363517,0.525082 -0.372045,0.679193 -0.70959,1.782407 0.345816,-1.02587 0.816367,-1.879388 1.757495,-2.309817 0.844256,-0.432164 1.344212,-0.3571 1.830617,-0.200177 0.232293,0.07494 0.507364,0.249508 0.651401,0.33553 0.252699,0.150538 0.631833,0.589641 0.631833,0.589641 0,0 -0.328887,-0.473223 -0.548928,-0.695953 -0.12059,-0.123269 -0.305946,-0.304116 -0.548927,-0.425246 -0.2448,-0.122452 -0.549722,-0.224865 -0.895483,-0.227144 z m 0.21576,1.028889 c -0.156298,-0.0042 -0.304465,0.0081 -0.428946,0.03008 -0.875666,0.154567 -1.604306,1.156121 -1.662746,2.023034 -0.02558,0.379668 0.0026,0.749061 0.149848,1.104086 0.258609,0.592015 0.767632,0.990491 1.28066,1.254997 1.228295,0.631674 2.729109,0.410643 3.833738,0.414875 1.151314,0.01518 1.99522,0.03576 2.818274,0.359904 0.43734,0.170527 0.978799,0.454817 1.2786,0.602087 0.739819,0.361881 1.261606,0.291968 1.261606,0.291968 0,0 -0.530417,0.02272 -1.214747,-0.380129 -0.292036,-0.170556 -0.802659,-0.486301 -1.249247,-0.694397 -0.837044,-0.386226 -1.736439,-0.4722 -2.883672,-0.530521 -1.148048,-0.06803 -2.614293,0.108402 -3.623128,-0.476069 -0.455266,-0.262053 -0.890084,-0.586807 -1.060264,-1.028372 -0.108871,-0.26246 -0.136253,-0.552646 -0.113802,-0.885758 0.04598,-0.682151 0.624414,-1.467199 1.267271,-1.580673 0.262644,-0.04636 0.641245,-0.03251 0.889818,0.104237 0.288698,0.158815 0.552032,0.425337 0.662215,0.714622 0.0146,0.03846 0.0266,0.07696 0.03553,0.115647 0.137141,0.562331 -0.332912,1.276929 -0.857377,1.373754 -0.427911,0.09773 -0.905273,-0.32874 -0.939768,-0.692841 -0.05311,-0.422392 0.397908,-0.729882 0.655005,-0.712029 0.525298,0.01921 0.384661,0.570453 0.384661,0.570453 0,0 0.259999,-0.562372 -0.369728,-0.687137 -0.316695,-0.05673 -0.932479,0.205007 -0.931529,0.842197 0.0096,0.53365 0.536633,1.162814 1.264181,1.073489 0.792956,-0.115578 1.450908,-1.007612 1.261092,-1.875754 -0.01409,-0.06212 -0.03289,-0.122838 -0.0551,-0.180989 -0.157999,-0.414829 -0.512257,-0.762551 -0.87952,-0.964584 -0.230049,-0.126557 -0.512427,-0.179134 -0.772927,-0.186176 z m -9.48625,0.69336 c -2.697975,1.799814 -3.09915,0.985944 -3.332185,1.337972 -0.163122,0.21122 -0.11652,3.144704 -0.0932,6.195639 1.747758,2.933591 3.122605,3.61408 3.122605,3.61408 0.40988,-0.04635 0.686754,-0.315219 0.685902,-0.716697 -0.10963,0.134357 -0.188583,0.236854 -0.330078,0.298192 -0.0213,0.0092 -0.25926,0.39613 -0.283733,0.403466 -0.02349,-0.01118 0.168185,-0.401087 0.144699,-0.41332 -0.318778,-0.166077 -0.634073,-0.425197 -0.886214,-0.670541 -0.480216,-0.467276 -1.16647,-1.288271 -1.950598,-2.61475 l -0.01751,-0.02748 v -0.03319 c -0.01039,-1.371937 -0.02629,-2.717511 -0.02111,-3.745803 0.0026,-0.514148 0.01086,-0.949413 0.02729,-1.270036 0.0082,-0.160311 0.01931,-0.290678 0.03296,-0.392057 0.02126,-0.157923 0.0442,-0.229356 0.105563,-0.344864 0.03818,-0.02146 0.166785,-0.0344 0.273949,-0.04149 0.09721,-0.0063 0.202598,4.1e-5 0.379512,-0.03319 0.353829,-0.06648 0.927712,-0.295547 2.124133,-1.099937 l 0.06385,-0.04304 -0.03862,-0.385316 0.142124,0.443398 c 0.09633,0.06222 0.193947,0.110369 0.253351,0.164394 0.02891,-0.340668 -0.136953,-0.430937 -0.402684,-0.625424 z m 3.566999,0.39465 c -0.124867,-1.02e-4 -0.251267,0.008 -0.378997,0.02645 -0.0079,0.0012 -0.01629,0.0024 -0.0242,0.0036 -0.03291,0.0052 -0.06552,0.01114 -0.09835,0.01763 -0.995084,0.195407 -1.710632,0.871326 -2.072124,1.501847 -0.355828,0.620644 -0.35222,1.094751 -0.35222,1.094751 0,0 0.09331,-0.46257 0.501553,-0.994662 0.418803,-0.545858 1.121534,-1.073527 1.991793,-1.2467 0.02846,-0.0056 0.05711,-0.01107 0.08548,-0.01556 0.0067,-0.0011 0.01334,-0.0021 0.02008,-0.0031 0.585382,-0.08885 1.182299,0.03347 1.684374,0.2287 0.952198,0.385018 1.253367,1.036669 1.253367,1.036669 0,0 -0.13926,-0.754748 -1.148319,-1.269518 -0.413743,-0.217763 -0.92134,-0.379684 -1.462434,-0.380129 z m -3.605619,0.379611 c -2.385459,1.543271 -2.255131,0.669465 -2.713227,1.440134 -0.012,0.09001 -0.02334,0.140981 -0.03141,0.297673 -0.01603,0.313384 -0.02058,0.598942 -0.02317,1.111347 -0.0023,0.434803 0.03904,0.697503 0.04223,1.21662 0.01838,0.148502 0.149272,0.302955 0.236873,0.35057 0.84864,0.400431 1.379468,0.418428 2.350707,0.555932 0.01867,0.0026 0.125605,-0.07319 0.13852,-0.104237 z m 0.151907,0.01815 -5.15e-4,4.843147 c 0,0 0.07764,0.133803 0.108653,0.126537 0.04718,-0.01105 0.06327,-0.02047 0.132855,-0.07053 v -4.788694 c -0.0055,-0.0069 -0.174213,-0.05294 -0.240993,-0.11046 z m 6.710201,0.528447 c -0.0096,0.78728 0.0818,1.617581 0.513397,2.294259 0.999694,1.482312 3.143639,1.183707 3.578328,1.065192 -0.641301,-0.09721 -3.694002,0.229313 -4.091725,-3.359451 z m -3.126724,0.405022 c -0.439163,0.0044 -0.875976,0.100829 -1.247188,0.280041 -0.907125,0.43794 -1.598397,1.45663 -1.727113,2.453467 -0.103999,0.80542 0.175894,1.647059 0.598877,2.340932 0.152504,0.250166 0.326303,0.48682 0.518546,0.706843 0.713226,0.817117 1.717941,1.345757 2.765235,1.462953 0.684219,0.07127 1.35113,-0.04909 1.962442,-0.137946 1.230612,-0.176921 2.342949,-0.562949 3.403762,-0.736403 1.412819,-0.2298 2.374747,-0.441952 3.507266,-0.393613 0.585846,0.02297 1.239809,0.218852 1.685918,0.33553 1.283424,0.335612 2.030414,0.6638 2.030414,0.6638 0,0 -0.693867,-0.359755 -2.000548,-0.769074 -0.438733,-0.137823 -1.086168,-0.363977 -1.704456,-0.41695 -1.151839,-0.09547 -2.160962,0.0787 -3.564424,0.263446 -1.100141,0.14459 -2.231124,0.501014 -3.411486,0.642019 -0.624831,0.07415 -1.261613,0.181903 -1.856879,0.101644 -0.928756,-0.116843 -1.826784,-0.604734 -2.45833,-1.332267 -0.173732,-0.200349 -0.330852,-0.41573 -0.469112,-0.642537 -0.387666,-0.635938 -0.619237,-1.354014 -0.532449,-2.026146 0.108383,-0.839377 0.708495,-1.718106 1.459344,-2.080598 0.702327,-0.339069 1.716699,-0.311528 2.331139,0.135871 0.616914,0.449207 0.989871,1.416754 0.860467,2.178094 -0.05788,0.340522 -0.248656,0.687797 -0.518546,0.968733 -0.217426,0.224025 -0.475143,0.406097 -0.756448,0.500443 -0.503959,0.180336 -1.119879,0.01337 -1.547914,-0.322565 -0.397092,-0.320159 -0.635767,-0.836949 -0.595272,-1.309968 0.03347,-0.391523 0.275486,-0.763184 0.598361,-0.907539 0.428356,-0.193228 0.942584,-0.111541 1.232255,0.159727 0.319523,0.319715 0.481094,0.83953 0.247687,1.084898 -0.596974,0.70076 -1.150379,-0.131723 -1.150379,-0.131723 0,0 0.478911,0.930529 1.234829,0.213661 0.286174,-0.297168 0.237873,-0.905731 -0.183319,-1.318784 -0.340754,-0.352629 -0.9438,-0.508533 -1.497449,-0.287301 -0.442742,0.178713 -0.785211,0.62338 -0.847079,1.148685 -0.07208,0.609159 0.188994,1.264439 0.686932,1.684393 0.515516,0.444428 1.272872,0.65874 1.970166,0.437693 0.367755,-0.122517 0.691248,-0.343286 0.951611,-0.616608 0.324632,-0.337932 0.569948,-0.770388 0.646767,-1.222326 0.160895,-0.946638 -0.274605,-2.084454 -1.052026,-2.650532 -0.438322,-0.319163 -1.00696,-0.465657 -1.571601,-0.459993 z m 7.089713,0.762333 c 0,0 0.3438,0.545505 1.196209,0.701139 0.308913,0.05752 0.629425,0.06918 0.961396,0.05653 0.04336,-0.0016 0.08717,-0.0037 0.130795,-0.0057 0.995984,-0.04465 1.41335,-0.150755 2.163783,-0.07831 0.488939,0.04342 0.812063,0.19551 0.812063,0.19551 0,0 -0.28676,-0.203213 -0.79301,-0.316861 -0.671036,-0.148196 -1.300489,-0.112706 -2.195195,-0.07001 -0.04292,0.002 -0.0858,0.0036 -0.12822,0.0052 -0.330586,0.01182 -0.624125,0.02217 -0.92226,-0.0031 -0.771428,-0.0674 -1.225561,-0.484398 -1.225561,-0.484398 z m -14.707755,0.623868 c -0.607523,-0.0029 -1.230073,0.440888 -1.239464,1.087491 0.09972,0.444268 0.159134,0.604945 0.884154,1.248774 0.01941,0.01723 -0.02591,-0.08537 -0.07312,-0.15869 -0.647815,-0.715279 -0.110147,-1.855299 0.714224,-1.141425 v -1.002441 c -0.0095,-0.0015 -0.01882,-0.0034 -0.02832,-0.0047 -0.08433,-0.01939 -0.170682,-0.02862 -0.25747,-0.02904 z m 20.141932,0.331382 c 0.338567,0.186494 0.385836,0.256756 0.563345,0.179433 0.09166,-0.03993 0.428399,0.143002 0.668909,0.169062 -0.177373,-0.03766 -0.413701,-0.23469 -0.567465,-0.249444 -0.131286,-0.0126 -0.32767,0.07497 -0.664789,-0.09905 z m -9.016109,1.111346 c 0,0 -0.07206,0.294135 0.3481,0.62698 0.201011,0.162424 0.439827,0.298602 0.75027,0.438211 0.965968,0.429993 1.883645,0.176469 3.033005,0.234405 4.493743,0.05721 4.489335,1.229837 5.899683,1.02889 0,0 -0.207885,-0.06657 -0.497433,-0.16958 -0.359137,-0.127763 -0.592859,-0.274041 -1.052026,-0.507185 -0.344684,-0.178562 -0.701736,-0.314749 -1.037606,-0.399317 -0.144598,-0.03645 -0.290712,-0.06872 -0.439245,-0.09853 0,0 -0.42697,-0.07402 -1.073138,-0.13639 -0.60057,-0.05738 -1.044863,-0.02542 -1.793541,-0.01711 -1.210315,0.0067 -2.049029,0.331723 -3.000563,-0.03008 -0.31428,-0.118407 -0.553686,-0.23455 -0.760569,-0.381167 -0.419802,-0.303752 -0.376937,-0.589122 -0.376937,-0.589122 z m -10.840031,0.858276 c -0.01546,0.01238 -0.03144,0.02418 -0.0484,0.03527 -0.40622,0.283922 -0.615404,0.799817 -0.506188,1.266924 0.0031,0.013 0.140611,-0.120984 0.143669,-0.107867 0.0035,0.01488 -0.151299,0.148972 -0.147273,0.163875 -0.390092,0.561979 -1.296033,-0.477397 -1.675105,-0.391019 -0.213258,-0.439934 -1.195783,-0.904688 -1.175096,-0.377536 0.228633,0.177204 -0.09605,0.07946 -0.215245,0.146243 -0.183625,0.438202 0.270741,0.444407 0.618444,0.547635 0.417138,0.205971 1.035518,0.551116 1.552548,0.709436 0.185293,0.05674 0.51535,0.05452 0.641617,0.05134 0.03215,-8.09e-4 0.153968,-0.196547 0.153968,-0.196547 0,0 -0.104938,0.219838 -0.107108,0.263446 -0.0069,0.137623 -0.01934,0.461183 -0.0077,0.772704 0.393358,-0.307152 0.619641,-0.52894 0.771897,-0.977549 z m 1.067474,0.014 c -0.110839,0.03213 -0.17913,0.142183 -0.233784,0.236478 0.0042,0.608975 0.0388,0.971007 0.101444,1.649647 0.878509,1.554284 1.456231,2.065537 1.905798,2.525033 0.227007,0.239957 0.449569,0.486306 0.755934,0.547116 v -2.26781 -0.13276 -0.116165 -1.711878 c 0,-0.02374 -0.126282,-0.176738 -0.156543,-0.183582 -0.96111,-0.135821 -0.946005,-0.06687 -2.372849,-0.546079 z m 2.922292,0.483847 c -0.05576,0.06239 -0.07074,0.06027 -0.119467,0.07312 -0.03715,0.0098 -0.102593,0.142674 -0.121526,0.177878 l -5.15e-4,4.220316 c 0.09116,-0.02206 0.241508,-0.222996 0.241508,-0.222996 z m 9.846194,0.661726 c -1.050732,0.01579 -2.075347,0.375517 -3.187487,0.901835 -0.354549,0.167789 -0.750047,0.268705 -1.141625,0.28004 -0.900385,0.02606 -1.472282,0.0515 -2.658128,-0.49059 2.099244,1.526638 3.989252,0.656548 4.975364,0.01452 0.668746,-0.467637 2.12821,-0.726337 3.075745,-0.600531 -0.36034,-0.07776 -0.713628,-0.110538 -1.063869,-0.105274 z m 1.148834,0.118239 c 0.2349,0.0165 0.367066,0.08988 0.554077,0.110979 0.230864,0.02606 0.333326,0.08199 0.696716,0.01919 -0.409152,0.03727 -0.367658,-0.04981 -0.552017,-0.06897 -0.09426,-0.0098 -0.188762,-0.01572 -0.283218,-0.02334 -0.13991,0.0018 -0.274272,-0.02945 -0.415558,-0.03786 z m 6.356951,0.271225 c -0.01422,-3.84e-4 -0.0288,0.0032 -0.04274,0.01193 -0.05332,0.02695 -0.111625,0.04293 -0.170445,0.05186 0.0219,0.0077 0.04123,0.02214 0.06385,0.02852 0.04065,0.01434 0.07715,0.03887 0.118952,0.0503 0.05161,0.01846 0.107515,0.01147 0.161177,0.01037 0.05294,-0.01033 0.107452,-0.006 0.160661,-0.01452 -0.0338,-0.0011 -0.06286,-0.02229 -0.09372,-0.03371 -0.04055,-0.01501 -0.0798,-0.03315 -0.111742,-0.06327 -0.02386,-0.02119 -0.0547,-0.04064 -0.086,-0.04149 z m 0.873856,0.216254 c -0.06368,0.003 -0.122373,0.04305 -0.183319,0.06016 -0.06135,0.04329 -0.146924,0.06288 -0.215246,0.02437 h -5.15e-4 c -0.0026,0.02219 0.01194,0.04124 0.02678,0.05601 0.05664,0.07779 0.16554,0.09258 0.252322,0.06638 0.06579,-0.02801 0.137334,-0.03934 0.208551,-0.03578 0.117196,0.0077 0.21095,0.02437 0.315659,0.08661 0.102464,0.04963 -0.04394,-0.02794 0.363034,0.05912 -0.145883,-0.07537 -0.140437,-0.06976 -0.193103,-0.08609 -0.101143,-0.02789 -0.159387,-0.03992 -0.251807,-0.0892 -0.09032,-0.04941 -0.178799,-0.105359 -0.277553,-0.136909 -0.01527,-0.004 -0.03011,-0.0054 -0.0448,-0.0047 z m -8.788505,1.43443 c -1.055727,0.04178 -2.051564,0.458475 -2.692113,1.207805 -0.51519,0.739008 -0.772403,1.669746 -0.697231,2.567038 0.287594,-2.327673 1.663495,-3.444155 3.389344,-3.774843 z m -18.66611,0.03786 -0.08754,0.06482 c -0.01773,0.0098 -0.858104,0.385856 -0.949551,1.368569 -0.0013,0.01401 0.258886,-0.06055 0.257985,-0.04978 -0.0021,0.02558 -0.264165,0.128093 -0.264165,0.128093 l -0.280128,0.150392 -0.08033,1.02889 0.215246,0.216253 c 0,0 0.110632,0.05869 0.159632,0.112535 0.01196,0.01314 -0.195904,-0.04717 -0.204947,-0.02697 -0.08488,0.189659 -0.260815,0.578263 -0.401139,0.721883 -0.05164,0.05285 0.14279,0.05897 0.214215,0.1032 0.179855,0.111387 0.187551,0.06873 0.240993,0.355237 0.43054,-0.385655 0.508965,-0.654834 0.676118,-1.570821 0.0036,-0.01986 -0.157455,-0.04399 -0.153968,-0.06379 0.138462,-0.04973 0.598002,-0.189558 0.730187,-0.296117 -0.149383,-0.13453 -0.474956,-0.232979 -0.462417,-0.323602 0.05415,-0.391373 0.118229,-0.61594 0.212671,-0.867607 0.04497,-0.119844 0.210266,-0.280363 0.309479,-0.360423 -0.258812,-0.122238 -0.135885,-0.681419 -0.13234,-0.690767 z m 0.181775,0.02074 c -0.09571,0.292905 0.101696,0.361825 0.376937,0.46829 0.75232,-0.11753 1.366802,-0.118512 2.138551,-0.151948 -0.828529,-0.287662 -1.65237,-0.308111 -2.515488,-0.316342 z m 21.094573,0.0047 c -1.518477,-0.0036 -3.387455,0.277182 -4.557746,1.623199 -0.41402,0.481102 -0.777651,1.07168 -0.891363,1.756995 -0.121739,0.861753 0.262331,1.708887 0.860467,2.302556 0.12744,0.128404 0.269358,0.240473 0.421222,0.335012 0.932106,0.58095 2.285934,0.533021 3.131873,-0.240109 0.245135,-0.224028 0.425462,-0.498616 0.531935,-0.793967 0.256482,-0.722482 0.01055,-1.476013 -0.462933,-1.909462 -0.767799,-0.685233 -1.817895,-0.519334 -2.352252,-0.02852 -0.599619,0.581474 -0.401141,1.413782 -0.01184,1.764256 0.563594,0.476739 1.222487,0.229579 1.471187,-0.01971 0.315474,-0.352239 0.11626,-0.690522 0.01339,-0.837528 -0.103026,-0.147212 -0.174051,-0.175285 -0.174051,-0.175285 0,0 0.05844,0.04767 0.127191,0.202251 0.06835,0.153661 0.17969,0.495843 -0.08599,0.679358 -0.216078,0.179158 -0.762975,0.295468 -1.1442,-0.08194 -0.25527,-0.231544 -0.345456,-0.874803 0.07673,-1.230104 0.378022,-0.346583 1.219067,-0.433184 1.767794,0.07571 0.333907,0.298806 0.514382,0.881957 0.324928,1.396573 -0.07985,0.221524 -0.215988,0.430007 -0.403714,0.601568 -0.687542,0.628364 -1.788122,0.667201 -2.558229,0.187213 -0.121821,-0.07604 -0.235124,-0.165391 -0.335227,-0.266039 -0.506367,-0.518157 -0.853152,-1.223266 -0.743575,-1.892348 0.07503,-0.563535 0.39566,-1.088432 0.765203,-1.54904 1.19675,-1.512261 3.61716,-1.63358 5.199878,-1.605566 1.109054,0.02719 2.185597,0.191473 2.964517,0.326714 1.418801,0.247 2.235361,0.510815 2.235361,0.510815 0,0 -0.799796,-0.315056 -2.211673,-0.632166 -0.775908,-0.17458 -1.846801,-0.388868 -2.976876,-0.462067 -0.300245,-0.0215 -0.631572,-0.03754 -0.981994,-0.03838 z m 5.045911,0.105275 c -0.0067,4.69e-4 -0.01351,0.0021 -0.02008,0.0052 0.0085,0.03727 0.07623,0.03445 0.110713,0.04875 0.06411,0.01698 0.12413,0.03856 0.160146,0.09646 l 0.03914,0.01089 c 0.02904,0.0039 0.02714,-0.0014 0.106593,-0.02904 0.0012,-0.01312 -0.0779,-0.01743 -0.07518,-0.03734 -0.04276,-0.0036 -0.08407,-0.01606 -0.123071,-0.03371 -0.03531,-0.01844 -0.07398,-0.0279 -0.112257,-0.03786 -0.02758,-0.0068 -0.05713,-0.02537 -0.08599,-0.02334 z m 0.506702,0.09024 c 0.0052,0.0011 0.01075,0.0016 0.01596,0.0026 -0.005,-0.0018 -0.01033,-0.0026 -0.01596,-0.0026 z m 0.01751,0.0031 c 0.01423,0.0057 0.02643,0.01781 0.03862,0.02697 0.03693,0.035 0.08665,0.04865 0.12719,0.07831 0.05649,0.02748 0.121354,-0.0011 0.18126,-5.18e-4 0.05164,-0.02031 0.113724,0.0022 0.160146,-0.03008 0.0093,-0.0073 -0.05358,0.0089 -0.07312,-0.0031 -0.05649,-0.0074 -0.0798,-0.05072 -0.140064,-0.04927 -0.09808,-0.0052 -0.197124,-0.0039 -0.294032,-0.0223 z m 0.70547,0.965621 c 0.02411,0.02013 0.05993,0.03304 0.09114,0.04719 0.01683,0.0076 0.03412,0.01421 0.05149,0.02022 0.02688,0.0092 0.05636,0.01185 0.08187,0.02437 0.03896,0.01911 0.06928,0.05228 0.105563,0.07623 0.03992,0.02223 0.02549,0.01824 0.108653,0.08142 0.0059,0.0042 -0.03284,-0.05531 -0.0551,-0.07779 -0.03586,-0.03616 -0.08232,-0.05947 -0.123586,-0.0892 -0.03299,-0.02376 -0.04738,-0.04527 -0.09887,-0.07105 -0.04987,-0.02827 -0.10871,0.0083 -0.161177,-0.01141 z m -32.85326,0.06016 c -0.08987,4.86e-4 -0.179514,0.0023 -0.267255,0.001 -0.05013,-7.14e-4 -0.09974,7.6e-5 -0.148303,0.0016 -0.160668,0.03663 -0.581275,0.0034 -0.629773,0.230256 0.02905,0.213435 0.587352,0.449569 0.755934,0.566304 0.355827,0.160438 0.492131,0.148563 0.888274,0.13639 0.187034,-0.02475 0.377575,-0.02401 0.56489,-0.01452 0.05183,-0.139848 0.131982,-0.289102 0.13543,-0.437693 4.91e-4,-0.02136 -0.0026,-0.04795 -0.0067,-0.07571 -0.166464,-0.05874 -0.372255,-0.168213 -0.523181,-0.253074 -0.228097,-0.145063 -0.499711,-0.155997 -0.769322,-0.154541 z m 5.241588,0.130167 c -0.06724,0.09553 -0.130564,0.205665 -0.192588,0.432507 -0.0065,0.02379 0.0016,0.07147 0.01596,0.1032 0.01892,0.04168 0.04305,0.07753 0.08857,0.104756 0.146108,0.0874 0.414898,0.179484 0.53348,0.263964 0.02791,0.01988 0.326315,0.07587 0.563345,0.136391 -0.198797,0.0072 -0.56408,-0.0082 -0.619474,0.02334 -0.185912,0.106045 -0.575839,0.171907 -0.643162,0.262409 -0.132883,0.178632 -0.109221,0.352255 -0.08548,0.483848 l 1.465523,0.05082 0.531934,-0.535189 c 0.04119,-0.09957 -0.426371,-0.268113 -0.426371,-0.268113 0,0 0.497947,0.07413 0.588578,-0.0088 l -0.3481,-0.794486 z m 20.283541,0.231293 c -0.209154,0.004 -0.396543,0.0391 -0.540688,0.07364 -0.339355,0.07067 -0.514427,0.240109 -0.514427,0.240109 0,0 0.17101,-0.09886 0.529875,-0.12913 0.191255,-0.0094 0.452593,-0.0094 0.702895,0.05445 0.377298,0.09217 0.724231,0.321388 1.087041,0.6638 0.331799,0.307491 0.475807,0.798292 0.561286,1.325007 0.02306,0.160685 0.03776,0.3367 0.04223,0.529485 0.0051,0.21869 -0.02673,0.474954 -0.09732,0.730698 -0.05947,0.212503 -0.137092,0.414649 -0.245113,0.592753 -0.318134,0.522993 -0.753514,0.928181 -1.243068,1.146092 -1.230993,0.558297 -2.33217,0.222995 -2.33217,0.222995 0,0 1.021169,0.563852 2.453181,0.09594 0.585295,-0.195948 1.133087,-0.619049 1.516503,-1.214028 0.143457,-0.222625 0.244275,-0.466166 0.312054,-0.714622 0.08142,-0.294975 0.12104,-0.603226 0.114832,-0.870719 -0.0049,-0.210685 -0.02139,-0.406464 -0.04738,-0.587567 -0.07533,-0.59373 -0.313126,-1.179482 -0.773442,-1.560967 -0.425041,-0.343078 -0.873032,-0.545875 -1.310525,-0.590159 -0.07363,-0.0068 -0.146037,-0.0091 -0.215761,-0.0078 z m -21.923629,0.03423 c -0.16541,0.0028 -0.349242,0.03119 -0.438215,0.06638 -0.09912,0.274296 0.007,0.524368 0.152937,0.830268 0.172856,0.02913 0.188185,0.03067 0.35634,0.08194 l 0.01184,0.0099 c 0.0755,-0.532289 0.141477,-0.574263 0.170445,-0.961992 -0.06149,-0.0206 -0.154106,-0.02815 -0.253351,-0.02645 z m -1.059234,0.0036 c -0.168829,1.32e-4 -0.331908,0.01421 -0.44697,0.03475 0.01607,0.288435 0.133609,0.49818 0.308965,0.715141 0.186989,0.04008 0.489164,0.06336 0.678693,0.09179 -0.07883,-0.278566 -0.111573,-0.517415 -0.06025,-0.791374 -0.136909,-0.03667 -0.311615,-0.05044 -0.48044,-0.0503 z m -0.922775,0.001 c -0.05755,0.0016 -0.121304,0.0099 -0.211641,0.02593 -6.86e-4,0.160897 0.04371,0.334365 -0.0082,0.49785 0.251454,0.02516 0.467558,0.103004 0.684872,0.161283 0.04737,0.0127 -0.09714,-0.473397 -0.13234,-0.647724 -0.157832,-0.025 -0.236742,-0.04009 -0.332652,-0.03734 z m 5.257551,0.02178 0.332137,0.78204 7.789518,0.860347 c -7.773234,-0.766826 -7.627614,-0.709883 -8.38479,-0.06742 l 13.640282,0.713585 0.476836,-0.09335 z m -4.795649,1.018518 c -0.07887,0.532294 -0.214448,0.926028 -0.461902,1.381534 l 0.357884,-0.01089 c 0.269243,-0.455289 0.39431,-0.737733 0.561801,-1.258626 -0.250512,-0.01173 -0.457783,-0.112017 -0.457783,-0.112018 z M 85.703514,84.659969 c -0.470925,0 -0.900504,0.07282 -1.289413,0.218328 -0.386265,0.14551 -0.714197,0.351991 -0.984053,0.619201 -0.275147,0.269856 -0.485808,0.591029 -0.631318,0.964066 -0.145511,0.373035 -0.218335,0.779517 -0.218335,1.218695 0,0.470925 0.07673,0.888858 0.230178,1.253962 0.156093,0.3651 0.369187,0.670311 0.639043,0.916351 0.269855,0.24869 0.583635,0.43522 0.940797,0.55957 0.357163,0.12434 0.739346,0.18669 1.146775,0.18669 0.433886,0 0.908427,-0.0703 1.424328,-0.21055 0.518546,-0.14022 0.910532,-0.28933 1.175096,-0.44807 -0.0053,-0.11905 -0.0092,-0.2183 -0.01184,-0.29767 -0.0027,-0.082 -0.0041,-0.18924 -0.0041,-0.321531 v -0.65498 c 0,-0.08731 0.0171,-0.170593 0.05149,-0.249962 0.03439,-0.07937 0.105744,-0.136224 0.214216,-0.170617 0.09524,-0.03175 0.174924,-0.05269 0.238417,-0.06327 0.0635,-0.01059 0.135806,-0.02007 0.217821,-0.028 v -0.3096 h -2.924352 v 0.3096 c 0.07937,0.01058 0.178582,0.02805 0.297636,0.05186 0.119054,0.02381 0.218267,0.05423 0.297636,0.09127 0.10318,0.04762 0.171583,0.104477 0.205976,0.170617 0.03439,0.0635 0.05201,0.142783 0.05201,0.238033 v 1.14298 c -0.100534,0.0926 -0.242276,0.17439 -0.424826,0.24582 -0.179904,0.0688 -0.386143,0.1032 -0.61896,0.1032 -0.497381,0 -0.882512,-0.23391 -1.155013,-0.70218 -0.269856,-0.46828 -0.404744,-1.116633 -0.404744,-1.944726 0,-0.780466 0.137321,-1.39291 0.412468,-1.837378 0.277792,-0.444469 0.670736,-0.666912 1.178701,-0.666912 0.428594,0 0.78343,0.149626 1.063869,0.448584 0.280438,0.298958 0.520878,0.756801 0.721947,1.373236 h 0.349646 l -0.03605,-2.055705 h -0.345011 l -0.246142,0.218328 C 87.090148,84.939259 86.865335,84.85597 86.592834,84.779246 86.320332,84.699876 86.023653,84.65997 85.70353,84.65997 Z M 53.488616,96.581652 c -0.669988,0.157621 -1.172119,0.171543 -2.057191,0.208474 0.345133,0.201139 0.625597,0.228495 0.823392,0.261371 0.477567,0.117476 0.85507,0.0997 1.349146,0.03734 0.531894,-0.3266 0.06342,-0.460345 -0.115347,-0.507185 z m -2.01754,0.402428 c -0.07618,0.121189 -0.283306,0.445975 -0.366123,0.565267 -0.575829,0.8189 -1.472156,1.738596 -2.475324,2.180168 -0.119465,0.03734 -1.060779,0.248407 -1.060779,0.248407 0.396527,0.193108 0.469839,0.516258 0.571585,0.825608 0.0196,0.0596 0.665603,-0.27336 1.10249,-0.75144 0.864663,-0.878686 2.264198,-2.416658 2.548444,-2.972589 z m 39.26599,-10.921834 c -0.204932,0.527549 -0.43806,1.129038 -0.699805,1.804707 -0.261746,0.67567 -0.501237,1.284738 -0.718344,1.826489 -0.04261,0.10551 -0.08616,0.18858 -0.130795,0.24944 -0.04464,0.0588 -0.107822,0.11582 -0.188983,0.17062 -0.05073,0.0325 -0.115515,0.0586 -0.194648,0.0788 -0.07913,0.0183 -0.144984,0.0297 -0.197738,0.0337 v 0.21574 h 1.625155 v -0.21574 c -0.160293,-0.008 -0.304206,-0.0347 -0.432035,-0.0793 -0.127829,-0.0446 -0.192073,-0.1076 -0.192073,-0.18877 0,-0.0345 0.0053,-0.079 0.01545,-0.1338 0.01014,-0.0548 0.0282,-0.12589 0.05458,-0.21314 0.02841,-0.0893 0.06025,-0.18646 0.09475,-0.291971 0.03652,-0.10551 0.08274,-0.22928 0.139549,-0.37131 h 1.512898 l 0.358914,0.967701 c 0.0081,0.0203 0.01447,0.0436 0.01854,0.07 0.0041,0.0264 0.0062,0.0486 0.0062,0.0669 0,0.0446 -0.05309,0.0821 -0.158602,0.11253 -0.103481,0.0305 -0.234121,0.0511 -0.392385,0.0612 v 0.21626 h 1.79869 v -0.21626 c -0.05073,-0.002 -0.113395,-0.0123 -0.188469,-0.0306 -0.07508,-0.0203 -0.136137,-0.0447 -0.182804,-0.0731 -0.06898,-0.0467 -0.122623,-0.0945 -0.161176,-0.14314 -0.03855,-0.0487 -0.07307,-0.11223 -0.103504,-0.19136 l -1.439776,-3.725576 z m 12.433254,0 c -0.20493,0.527549 -0.43857,1.129038 -0.70032,1.804707 -0.26174,0.67567 -0.50072,1.284738 -0.71782,1.826489 -0.0426,0.10551 -0.0867,0.18858 -0.13131,0.24944 -0.0446,0.0588 -0.10731,0.11582 -0.18847,0.17062 -0.0507,0.0325 -0.11552,0.0586 -0.19465,0.0788 -0.0791,0.0183 -0.14498,0.0297 -0.19774,0.0337 v 0.21574 h 1.62516 v -0.21574 c -0.1603,-0.008 -0.30472,-0.0347 -0.43256,-0.0793 -0.12782,-0.0446 -0.19155,-0.1076 -0.19155,-0.18877 0,-0.0345 0.005,-0.079 0.0154,-0.1338 0.0101,-0.0548 0.0282,-0.12589 0.0546,-0.21314 0.0285,-0.0893 0.0598,-0.18646 0.0942,-0.291971 0.0365,-0.10551 0.0833,-0.22928 0.14007,-0.37131 h 1.51289 l 0.35892,0.967701 c 0.008,0.0203 0.0145,0.0436 0.0185,0.07 0.004,0.0264 0.006,0.0486 0.006,0.0669 0,0.0446 -0.0526,0.0821 -0.15809,0.11253 -0.10348,0.0305 -0.23412,0.0511 -0.39238,0.0612 v 0.21626 h 1.79869 v -0.21626 c -0.0507,-0.002 -0.11391,-0.0123 -0.18898,-0.0306 -0.0751,-0.0203 -0.13563,-0.0447 -0.18229,-0.0731 -0.069,-0.0467 -0.12316,-0.0945 -0.1617,-0.14314 -0.0385,-0.0487 -0.073,-0.11223 -0.1035,-0.19136 l -1.43926,-3.725576 z m -9.723118,0.06119 v 0.215735 c 0.05478,0.0041 0.123817,0.01818 0.207007,0.04252 0.08522,0.02232 0.151071,0.04566 0.197737,0.07001 0.06899,0.03247 0.114655,0.07534 0.136975,0.128093 0.02435,0.05275 0.03656,0.113558 0.03656,0.182545 v 3.092373 c 0,0.0791 -0.01433,0.14374 -0.04274,0.19447 -0.02637,0.0507 -0.06992,0.0893 -0.130795,0.11565 -0.03652,0.0163 -0.101312,0.0298 -0.194647,0.0399 -0.0913,0.0102 -0.161397,0.0173 -0.210097,0.0213 v 0.21626 h 3.374926 l 0.09166,-1.28456 h -0.216276 c -0.04261,0.11769 -0.119611,0.27186 -0.231208,0.46259 -0.109568,0.1887 -0.206207,0.32984 -0.289397,0.42317 -0.0284,0.0325 -0.07301,0.0596 -0.133885,0.0819 -0.05884,0.0203 -0.123631,0.0365 -0.194648,0.0487 -0.07304,0.0123 -0.150047,0.0204 -0.231209,0.0244 -0.08116,0.004 -0.159224,0.006 -0.234298,0.006 -0.166381,0 -0.296475,-0.005 -0.389811,-0.0156 -0.09131,-0.0121 -0.160339,-0.0361 -0.207006,-0.0726 -0.0487,-0.0406 -0.08003,-0.0976 -0.09423,-0.17062 -0.01217,-0.0751 -0.01802,-0.17983 -0.01802,-0.31375 v -2.90049 c 0,-0.06696 0.01221,-0.12941 0.03656,-0.18825 0.02638,-0.05884 0.07365,-0.100634 0.142638,-0.124981 0.04058,-0.01421 0.105885,-0.03049 0.195163,-0.04875 0.09131,-0.01829 0.165127,-0.0286 0.22194,-0.0306 v -0.215735 z m 4.007789,0 v 0.215735 c 0.05478,0.0041 0.123816,0.01818 0.207007,0.04252 0.08522,0.02232 0.15107,0.04566 0.197737,0.07001 0.06899,0.03247 0.114655,0.07534 0.136975,0.128093 0.02435,0.05275 0.03656,0.113558 0.03656,0.182545 v 3.092373 c 0,0.0791 -0.01433,0.14374 -0.04274,0.19447 -0.02638,0.0507 -0.06992,0.0893 -0.130795,0.11565 -0.03652,0.0163 -0.101312,0.0298 -0.194648,0.0399 -0.0913,0.0102 -0.161396,0.0173 -0.210096,0.0213 v 0.21626 h 3.375439 l 0.0911,-1.28456 h -0.21628 c -0.0426,0.11769 -0.11961,0.27186 -0.23121,0.46259 -0.10957,0.1887 -0.20569,0.32984 -0.28888,0.42317 -0.0284,0.0325 -0.073,0.0596 -0.13389,0.0819 -0.05884,0.0203 -0.124143,0.0365 -0.195159,0.0487 -0.07305,0.0123 -0.150047,0.0204 -0.231209,0.0244 -0.08116,0.004 -0.159224,0.006 -0.234298,0.006 -0.166381,0 -0.296476,-0.005 -0.389811,-0.0156 -0.09131,-0.0121 -0.159825,-0.0361 -0.206491,-0.0726 -0.0487,-0.0406 -0.08055,-0.0976 -0.09475,-0.17062 -0.01217,-0.0751 -0.01802,-0.17983 -0.01802,-0.31375 v -2.90049 c 0,-0.06696 0.01221,-0.12941 0.03656,-0.18825 0.02638,-0.05884 0.07417,-0.100634 0.143154,-0.124981 0.04058,-0.01421 0.10537,-0.03049 0.194648,-0.04875 0.09131,-0.01829 0.165126,-0.0286 0.22194,-0.0306 v -0.215735 z m 8.210739,0 v 0.215735 c 0.0771,0.0041 0.17747,0.03064 0.30124,0.07935 0.1258,0.04667 0.2251,0.103659 0.29815,0.170618 0.0548,0.05072 0.0983,0.122399 0.1308,0.215735 0.0325,0.09333 0.0489,0.186704 0.0489,0.28004 v 2.127788 c 0,0.28204 -0.0132,0.48182 -0.0396,0.5995 -0.0264,0.11567 -0.0752,0.20197 -0.14624,0.25877 -0.0325,0.0284 -0.11371,0.0605 -0.24357,0.097 -0.12984,0.0345 -0.22223,0.0541 -0.27703,0.0581 v 0.21626 h 1.77139 v -0.21626 c -0.0467,-0.002 -0.14279,-0.0221 -0.28888,-0.0607 -0.14609,-0.0385 -0.24273,-0.0803 -0.2894,-0.12498 -0.0649,-0.0568 -0.11326,-0.15235 -0.14572,-0.28627 -0.0304,-0.13392 -0.0458,-0.32554 -0.0458,-0.57512 v -2.227875 l 2.61744,3.533695 h 0.26468 V 87.32244 c 0,-0.221164 0.0122,-0.403573 0.0366,-0.547635 0.0264,-0.14406 0.0763,-0.24176 0.14934,-0.292487 0.0507,-0.03247 0.13464,-0.06395 0.25232,-0.09438 0.1177,-0.03047 0.2053,-0.04675 0.2621,-0.04875 v -0.215735 h -1.75646 v 0.215735 c 0.067,0.0041 0.16466,0.02468 0.29249,0.06119 0.12987,0.03652 0.22281,0.07398 0.27961,0.112535 0.0609,0.04464 0.1076,0.134761 0.14006,0.270706 0.0325,0.133917 0.0489,0.326632 0.0489,0.578232 v 2.054661 l -2.42898,-3.293063 z m 4.99956,0 v 1.171504 h 0.21319 c 0.0183,-0.06696 0.0507,-0.151104 0.0973,-0.252556 0.0467,-0.10348 0.10083,-0.200661 0.1617,-0.291968 0.0609,-0.09131 0.12672,-0.172723 0.19773,-0.243739 0.073,-0.07305 0.14314,-0.113756 0.2101,-0.121869 0.0852,-0.01017 0.17444,-0.01615 0.26777,-0.01815 0.0933,-0.0041 0.17136,-0.0062 0.2343,-0.0062 h 0.17662 v 3.481834 c 0,0.0832 -0.0165,0.15049 -0.0489,0.20122 -0.0304,0.0487 -0.0793,0.0861 -0.14624,0.11253 -0.0446,0.0183 -0.12537,0.0334 -0.24305,0.0456 -0.11567,0.0122 -0.20222,0.0204 -0.25902,0.0244 v 0.21626 h 2.03917 v -0.21626 c -0.0649,-0.002 -0.15626,-0.0156 -0.27395,-0.0399 -0.11565,-0.0243 -0.19159,-0.0434 -0.22812,-0.0576 -0.071,-0.0304 -0.12093,-0.0728 -0.14933,-0.12758 -0.0284,-0.0568 -0.0422,-0.1187 -0.0422,-0.18565 v -3.454874 h 0.17611 c 0.0812,0 0.16984,0.0022 0.2652,0.0062 0.0954,0.0041 0.17452,0.01004 0.23739,0.01815 0.067,0.01014 0.13599,0.05085 0.207,0.121869 0.0731,0.06899 0.13996,0.150403 0.20083,0.243739 0.0588,0.08928 0.11142,0.184293 0.15809,0.285745 0.0487,0.09942 0.0821,0.185733 0.10041,0.258779 h 0.2101 v -1.171504 z m -20.004435,0.879535 0.65449,1.674016 h -1.296622 z m 12.433255,0 0.65449,1.674016 h -1.29662 z m -1.75234,3.954791 c -0.3332,0.58384 -0.71246,1.24934 -1.13802,1.9971 -0.440233,0.77245 -0.84682,1.58878 -1.38056,2.29737 -0.260029,0.23328 -0.407051,0.29929 -0.696715,0.31324 v 0.23907 h 2.144735 v -0.23907 c -0.12517,-0.004 -0.765207,-0.0442 -0.765207,-0.29664 0,-0.0382 0.0083,-0.0872 0.02472,-0.1478 0.01654,-0.0606 0.04624,-0.13942 0.08908,-0.23596 0.04619,-0.0988 0.09735,-0.20683 0.153452,-0.3236 0.05938,-0.11676 0.135231,-0.25353 0.227605,-0.41073 h 2.45936 l 0.58394,1.0709 c 0.0132,0.0225 0.0224,0.0486 0.0293,0.0778 0.007,0.0291 0.0103,0.054 0.0103,0.0742 0,0.14686 -0.5182,0.18585 -0.64625,0.19188 v 0.23907 h 2.4264 v -0.23907 c -0.35674,-0.01 -0.56986,-0.10276 -0.7858,-0.48489 l -2.3404,-4.12282 z m -14.81641,0.0669 v 0.23959 c 0.342757,0.0174 0.691567,0.10045 0.691567,0.46829 v 3.4222 c 0,0.34644 -0.05526,0.37751 -0.691567,0.41073 v 0.23907 h 5.239014 l 0.148818,-1.42147 h -0.351705 c -0.132481,0.24908 -0.313321,0.76363 -0.596817,0.98014 -0.305309,0.23743 -1.987493,0.17555 -2.174082,0.1618 -0.47744,-0.0432 -0.519576,-0.20287 -0.519576,-0.6166 v -3.2101 c 0,-0.45756 0.324242,-0.40104 0.720918,-0.43406 v -0.23959 z m 5.759105,0 v 0.23959 c 0.367508,0.034 0.666649,0.0157 0.749754,0.45429 v 3.43568 c 0,0.29021 -0.06582,0.34832 -0.749754,0.41125 v 0.23907 h 5.579905 l 0.133369,-1.40798 H 97.6414 c -0.05669,0.12678 -0.183514,0.71532 -0.546868,0.9734 -0.283815,0.20464 -2.453364,0.22417 -2.788407,0.0576 -0.08581,-0.0427 -0.143326,-0.10568 -0.173021,-0.18877 -0.107718,-0.58205 -0.01501,-1.1851 -0.0448,-1.77515 0.43495,0 1.024497,-0.0247 1.45574,0.0405 0.53925,0.11011 0.479229,0.6963 0.489194,0.77477 h 0.371273 v -1.86953 h -0.371273 c -0.03399,0.19899 -0.0079,0.60914 -0.449544,0.73433 -0.445243,0.0699 -1.045273,0.0452 -1.49539,0.0472 v -1.8996 c 0.651334,0 1.553603,-0.0159 2.20395,0.027 0.435368,0.0395 0.69003,0.56176 0.804853,0.85879 h 0.371273 v -1.15231 z m 12.871475,5.2e-4 v 0.23907 c 0.3548,0.0316 0.67913,0.0189 0.75078,0.45481 v 3.44916 c 0,0.32341 -0.34184,0.37657 -0.75078,0.39725 v 0.23907 h 2.54484 v -0.23907 c -0.3661,-0.0278 -0.72433,-0.0611 -0.73997,-0.43459 v -1.64705 h 0.80639 c 0.21115,0 0.54054,0.0158 0.689,0.0472 0.56153,0.10801 0.50014,0.64654 0.51339,0.77841 h 0.37642 v -1.87624 h -0.37642 c -0.0926,0.36873 -0.10188,0.63235 -0.48353,0.72759 -0.13526,0.0336 -0.47474,0.0503 -0.71886,0.0503 h -0.80639 v -1.91983 c 0.67274,-0.001 1.7954,-0.0169 2.46708,0.027 0.45248,0.0454 0.69828,0.60443 0.81464,0.90236 h 0.37127 v -1.19536 z m -3.93776,0.9734 1.06387,1.85241 h -2.10817 z"
       transform="matrix(1.0035401,0,0,0.99647239,29.730834,-6.9534663)" /><path
       id="path16"
       style="fill:url(#linearGradient12);font-style:normal;font-size:8.12743px;line-height:1.25;font-family:Georgia;-inkscape-font-specification:'Georgia Bold';letter-spacing:0.235479px;stroke-width:0.246047;opacity:1;font-weight:bold;display:inline;fill-opacity:1"
       d="m 59.06131,79.740355 c -0.04545,-0.0025 0.443087,0.07728 0.793525,0.701139 -0.549896,-0.521963 -1.012679,-0.94635 -2.571103,-0.530521 1.922466,-0.175093 3.325538,1.844034 2.780684,3.094449 -0.02392,-0.503787 -0.206308,-0.888466 -0.541204,-1.132091 -0.01803,-0.01312 0.148326,0.1839 0.149848,0.326196 -0.350423,-0.608493 -0.745906,-0.663037 -1.345027,-0.528966 1.610277,0.383849 1.186119,1.305764 1.508264,1.458286 0.01944,0.0092 -0.07753,0.06049 -0.08806,0.07416 -0.558647,0.320568 -1.396915,0.636302 -2.11229,0.855679 -1.174589,0.360199 -2.436543,0.831779 -3.447532,1.533482 -1.575998,1.093863 -1.827153,2.03012 -2.214763,3.298775 -0.603689,1.975883 0.271971,5.102676 0.266224,5.308844 h 0.818757 c 0.08148,-0.309462 0.136758,-0.565945 0.146244,-0.703732 -0.06656,-1.192235 -0.05622,-3.336719 0.171475,-4.313144 0.08324,3.02785 0.106822,4.32137 0.56798,4.174161 1.408226,-1.930579 1.047683,-2.211511 0.96706,-4.489985 0.0068,-0.641462 0.122896,-1.272307 0.232754,-1.903239 0.02475,2.477685 0.06602,3.99955 0.506187,4.071998 0.582587,-0.481109 1.071291,-1.18874 1.193634,-1.558374 -0.0771,-0.394202 -0.113378,-2.685491 0.214731,-4.439162 0.0059,0.177561 0.01691,0.352396 0.03244,0.522742 0.0052,0.05636 0.01096,0.112123 0.01699,0.167506 0.0064,0.05822 0.01334,0.115669 0.0206,0.172692 0.162816,1.279973 0.54306,2.246443 0.642132,2.278182 0.910362,-0.342525 3.257439,-3.350023 3.611799,-4.071479 0.04003,-0.08149 0.06886,-0.213422 0.07518,-0.305452 5.01e-4,-0.0073 -0.204769,0.125705 -0.453663,0.150911 0.911475,-0.333261 1.709021,-1.658355 1.370259,-2.39331 -0.0071,-0.01528 0.0098,0.522764 -0.139034,0.698546 0.116615,-0.597277 -0.07891,-1.219874 -0.659125,-1.557337 0.826359,0.783723 0.705817,1.712973 -0.504643,2.192095 0.196031,-0.139729 0.643445,-1.671742 -0.311025,-2.550444 -0.0322,-0.02964 0.127118,0.249519 0.05047,0.617645 -0.06549,-0.946106 -0.800245,-1.147562 -1.749771,-1.220251 z m 14.380253,2.540073 c -0.350667,-4.53e-4 -0.7077,0.07592 -1.042756,0.222995 -0.07846,0.03428 -0.1549,0.07245 -0.229664,0.113572 -0.379199,0.209427 -0.665922,0.481825 -0.895998,0.814192 -0.363517,0.525082 -0.372045,0.679193 -0.70959,1.782407 0.345816,-1.02587 0.816367,-1.879388 1.757495,-2.309817 0.844256,-0.432164 1.344212,-0.3571 1.830617,-0.200177 0.232293,0.07494 0.507364,0.249508 0.651401,0.33553 0.252699,0.150538 0.631833,0.589641 0.631833,0.589641 0,0 -0.328887,-0.473223 -0.548928,-0.695953 -0.12059,-0.123269 -0.305946,-0.304116 -0.548927,-0.425246 -0.2448,-0.122452 -0.549722,-0.224865 -0.895483,-0.227144 z m 0.21576,1.028889 c -0.156298,-0.0042 -0.304465,0.0081 -0.428946,0.03008 -0.875666,0.154567 -1.604306,1.156121 -1.662746,2.023034 -0.02558,0.379668 0.0026,0.749061 0.149848,1.104086 0.258609,0.592015 0.767632,0.990491 1.28066,1.254997 1.228295,0.631674 2.729109,0.410643 3.833738,0.414875 1.151314,0.01518 1.99522,0.03576 2.818274,0.359904 0.43734,0.170527 0.978799,0.454817 1.2786,0.602087 0.739819,0.361881 1.261606,0.291968 1.261606,0.291968 0,0 -0.530417,0.02272 -1.214747,-0.380129 -0.292036,-0.170556 -0.802659,-0.486301 -1.249247,-0.694397 -0.837044,-0.386226 -1.736439,-0.4722 -2.883672,-0.530521 -1.148048,-0.06803 -2.614293,0.108402 -3.623128,-0.476069 -0.455266,-0.262053 -0.890084,-0.586807 -1.060264,-1.028372 -0.108871,-0.26246 -0.136253,-0.552646 -0.113802,-0.885758 0.04598,-0.682151 0.624414,-1.467199 1.267271,-1.580673 0.262644,-0.04636 0.641245,-0.03251 0.889818,0.104237 0.288698,0.158815 0.552032,0.425337 0.662215,0.714622 0.0146,0.03846 0.0266,0.07696 0.03553,0.115647 0.137141,0.562331 -0.332912,1.276929 -0.857377,1.373754 -0.427911,0.09773 -0.905273,-0.32874 -0.939768,-0.692841 -0.05311,-0.422392 0.397908,-0.729882 0.655005,-0.712029 0.525298,0.01921 0.384661,0.570453 0.384661,0.570453 0,0 0.259999,-0.562372 -0.369728,-0.687137 -0.316695,-0.05673 -0.932479,0.205007 -0.931529,0.842197 0.0096,0.53365 0.536633,1.162814 1.264181,1.073489 0.792956,-0.115578 1.450908,-1.007612 1.261092,-1.875754 -0.01409,-0.06212 -0.03289,-0.122838 -0.0551,-0.180989 -0.157999,-0.414829 -0.512257,-0.762551 -0.87952,-0.964584 -0.230049,-0.126557 -0.512427,-0.179134 -0.772927,-0.186176 z m -9.48625,0.69336 c -2.697975,1.799814 -3.09915,0.985944 -3.332185,1.337972 -0.163122,0.21122 -0.11652,3.144704 -0.0932,6.195639 1.747758,2.933591 3.122605,3.61408 3.122605,3.61408 0.40988,-0.04635 0.686754,-0.315219 0.685902,-0.716697 -0.10963,0.134357 -0.188583,0.236854 -0.330078,0.298192 -0.0213,0.0092 -0.25926,0.39613 -0.283733,0.403466 -0.02349,-0.01118 0.168185,-0.401087 0.144699,-0.41332 -0.318778,-0.166077 -0.634073,-0.425197 -0.886214,-0.670541 -0.480216,-0.467276 -1.16647,-1.288271 -1.950598,-2.61475 l -0.01751,-0.02748 v -0.03319 c -0.01039,-1.371937 -0.02629,-2.717511 -0.02111,-3.745803 0.0026,-0.514148 0.01086,-0.949413 0.02729,-1.270036 0.0082,-0.160311 0.01931,-0.290678 0.03296,-0.392057 0.02126,-0.157923 0.0442,-0.229356 0.105563,-0.344864 0.03818,-0.02146 0.166785,-0.0344 0.273949,-0.04149 0.09721,-0.0063 0.202598,4.1e-5 0.379512,-0.03319 0.353829,-0.06648 0.927712,-0.295547 2.124133,-1.099937 l 0.06385,-0.04304 -0.03862,-0.385316 0.142124,0.443398 c 0.09633,0.06222 0.193947,0.110369 0.253351,0.164394 0.02891,-0.340668 -0.136953,-0.430937 -0.402684,-0.625424 z m 3.566999,0.39465 c -0.124867,-1.02e-4 -0.251267,0.008 -0.378997,0.02645 -0.0079,0.0012 -0.01629,0.0024 -0.0242,0.0036 -0.03291,0.0052 -0.06552,0.01114 -0.09835,0.01763 -0.995084,0.195407 -1.710632,0.871326 -2.072124,1.501847 -0.355828,0.620644 -0.35222,1.094751 -0.35222,1.094751 0,0 0.09331,-0.46257 0.501553,-0.994662 0.418803,-0.545858 1.121534,-1.073527 1.991793,-1.2467 0.02846,-0.0056 0.05711,-0.01107 0.08548,-0.01556 0.0067,-0.0011 0.01334,-0.0021 0.02008,-0.0031 0.585382,-0.08885 1.182299,0.03347 1.684374,0.2287 0.952198,0.385018 1.253367,1.036669 1.253367,1.036669 0,0 -0.13926,-0.754748 -1.148319,-1.269518 -0.413743,-0.217763 -0.92134,-0.379684 -1.462434,-0.380129 z m -3.605619,0.379611 c -2.385459,1.543271 -2.255131,0.669465 -2.713227,1.440134 -0.012,0.09001 -0.02334,0.140981 -0.03141,0.297673 -0.01603,0.313384 -0.02058,0.598942 -0.02317,1.111347 -0.0023,0.434803 0.03904,0.697503 0.04223,1.21662 0.01838,0.148502 0.149272,0.302955 0.236873,0.35057 0.84864,0.400431 1.379468,0.418428 2.350707,0.555932 0.01867,0.0026 0.125605,-0.07319 0.13852,-0.104237 z m 0.151907,0.01815 -5.15e-4,4.843147 c 0,0 0.07764,0.133803 0.108653,0.126537 0.04718,-0.01105 0.06327,-0.02047 0.132855,-0.07053 v -4.788694 c -0.0055,-0.0069 -0.174213,-0.05294 -0.240993,-0.11046 z m 6.710201,0.528447 c -0.0096,0.78728 0.0818,1.617581 0.513397,2.294259 0.999694,1.482312 3.143639,1.183707 3.578328,1.065192 -0.641301,-0.09721 -3.694002,0.229313 -4.091725,-3.359451 z m -3.126724,0.405022 c -0.439163,0.0044 -0.875976,0.100829 -1.247188,0.280041 -0.907125,0.43794 -1.598397,1.45663 -1.727113,2.453467 -0.103999,0.80542 0.175894,1.647059 0.598877,2.340932 0.152504,0.250166 0.326303,0.48682 0.518546,0.706843 0.713226,0.817117 1.717941,1.345757 2.765235,1.462953 0.684219,0.07127 1.35113,-0.04909 1.962442,-0.137946 1.230612,-0.176921 2.342949,-0.562949 3.403762,-0.736403 1.412819,-0.2298 2.374747,-0.441952 3.507266,-0.393613 0.585846,0.02297 1.239809,0.218852 1.685918,0.33553 1.283424,0.335612 2.030414,0.6638 2.030414,0.6638 0,0 -0.693867,-0.359755 -2.000548,-0.769074 -0.438733,-0.137823 -1.086168,-0.363977 -1.704456,-0.41695 -1.151839,-0.09547 -2.160962,0.0787 -3.564424,0.263446 -1.100141,0.14459 -2.231124,0.501014 -3.411486,0.642019 -0.624831,0.07415 -1.261613,0.181903 -1.856879,0.101644 -0.928756,-0.116843 -1.826784,-0.604734 -2.45833,-1.332267 -0.173732,-0.200349 -0.330852,-0.41573 -0.469112,-0.642537 -0.387666,-0.635938 -0.619237,-1.354014 -0.532449,-2.026146 0.108383,-0.839377 0.708495,-1.718106 1.459344,-2.080598 0.702327,-0.339069 1.716699,-0.311528 2.331139,0.135871 0.616914,0.449207 0.989871,1.416754 0.860467,2.178094 -0.05788,0.340522 -0.248656,0.687797 -0.518546,0.968733 -0.217426,0.224025 -0.475143,0.406097 -0.756448,0.500443 -0.503959,0.180336 -1.119879,0.01337 -1.547914,-0.322565 -0.397092,-0.320159 -0.635767,-0.836949 -0.595272,-1.309968 0.03347,-0.391523 0.275486,-0.763184 0.598361,-0.907539 0.428356,-0.193228 0.942584,-0.111541 1.232255,0.159727 0.319523,0.319715 0.481094,0.83953 0.247687,1.084898 -0.596974,0.70076 -1.150379,-0.131723 -1.150379,-0.131723 0,0 0.478911,0.930529 1.234829,0.213661 0.286174,-0.297168 0.237873,-0.905731 -0.183319,-1.318784 -0.340754,-0.352629 -0.9438,-0.508533 -1.497449,-0.287301 -0.442742,0.178713 -0.785211,0.62338 -0.847079,1.148685 -0.07208,0.609159 0.188994,1.264439 0.686932,1.684393 0.515516,0.444428 1.272872,0.65874 1.970166,0.437693 0.367755,-0.122517 0.691248,-0.343286 0.951611,-0.616608 0.324632,-0.337932 0.569948,-0.770388 0.646767,-1.222326 0.160895,-0.946638 -0.274605,-2.084454 -1.052026,-2.650532 -0.438322,-0.319163 -1.00696,-0.465657 -1.571601,-0.459993 z m 7.089713,0.762333 c 0,0 0.3438,0.545505 1.196209,0.701139 0.308913,0.05752 0.629425,0.06918 0.961396,0.05653 0.04336,-0.0016 0.08717,-0.0037 0.130795,-0.0057 0.995984,-0.04465 1.41335,-0.150755 2.163783,-0.07831 0.488939,0.04342 0.812063,0.19551 0.812063,0.19551 0,0 -0.28676,-0.203213 -0.79301,-0.316861 -0.671036,-0.148196 -1.300489,-0.112706 -2.195195,-0.07001 -0.04292,0.002 -0.0858,0.0036 -0.12822,0.0052 -0.330586,0.01182 -0.624125,0.02217 -0.92226,-0.0031 -0.771428,-0.0674 -1.225561,-0.484398 -1.225561,-0.484398 z m -14.707755,0.623868 c -0.607523,-0.0029 -1.230073,0.440888 -1.239464,1.087491 0.09972,0.444268 0.159134,0.604945 0.884154,1.248774 0.01941,0.01723 -0.02591,-0.08537 -0.07312,-0.15869 -0.647815,-0.715279 -0.110147,-1.855299 0.714224,-1.141425 v -1.002441 c -0.0095,-0.0015 -0.01882,-0.0034 -0.02832,-0.0047 -0.08433,-0.01939 -0.170682,-0.02862 -0.25747,-0.02904 z m 20.141932,0.331382 c 0.338567,0.186494 0.385836,0.256756 0.563345,0.179433 0.09166,-0.03993 0.428399,0.143002 0.668909,0.169062 -0.177373,-0.03766 -0.413701,-0.23469 -0.567465,-0.249444 -0.131286,-0.0126 -0.32767,0.07497 -0.664789,-0.09905 z m -9.016109,1.111346 c 0,0 -0.07206,0.294135 0.3481,0.62698 0.201011,0.162424 0.439827,0.298602 0.75027,0.438211 0.965968,0.429993 1.883645,0.176469 3.033005,0.234405 4.493743,0.05721 4.489335,1.229837 5.899683,1.02889 0,0 -0.207885,-0.06657 -0.497433,-0.16958 -0.359137,-0.127763 -0.592859,-0.274041 -1.052026,-0.507185 -0.344684,-0.178562 -0.701736,-0.314749 -1.037606,-0.399317 -0.144598,-0.03645 -0.290712,-0.06872 -0.439245,-0.09853 0,0 -0.42697,-0.07402 -1.073138,-0.13639 -0.60057,-0.05738 -1.044863,-0.02542 -1.793541,-0.01711 -1.210315,0.0067 -2.049029,0.331723 -3.000563,-0.03008 -0.31428,-0.118407 -0.553686,-0.23455 -0.760569,-0.381167 -0.419802,-0.303752 -0.376937,-0.589122 -0.376937,-0.589122 z m -10.840031,0.858276 c -0.01546,0.01238 -0.03144,0.02418 -0.0484,0.03527 -0.40622,0.283922 -0.615404,0.799817 -0.506188,1.266924 0.0031,0.013 0.140611,-0.120984 0.143669,-0.107867 0.0035,0.01488 -0.151299,0.148972 -0.147273,0.163875 -0.390092,0.561979 -1.296033,-0.477397 -1.675105,-0.391019 -0.213258,-0.439934 -1.195783,-0.904688 -1.175096,-0.377536 0.228633,0.177204 -0.09605,0.07946 -0.215245,0.146243 -0.183625,0.438202 0.270741,0.444407 0.618444,0.547635 0.417138,0.205971 1.035518,0.551116 1.552548,0.709436 0.185293,0.05674 0.51535,0.05452 0.641617,0.05134 0.03215,-8.09e-4 0.153968,-0.196547 0.153968,-0.196547 0,0 -0.104938,0.219838 -0.107108,0.263446 -0.0069,0.137623 -0.01934,0.461183 -0.0077,0.772704 0.393358,-0.307152 0.619641,-0.52894 0.771897,-0.977549 z m 1.067474,0.014 c -0.110839,0.03213 -0.17913,0.142183 -0.233784,0.236478 0.0042,0.608975 0.0388,0.971007 0.101444,1.649647 0.878509,1.554284 1.456231,2.065537 1.905798,2.525033 0.227007,0.239957 0.449569,0.486306 0.755934,0.547116 v -2.26781 -0.13276 -0.116165 -1.711878 c 0,-0.02374 -0.126282,-0.176738 -0.156543,-0.183582 -0.96111,-0.135821 -0.946005,-0.06687 -2.372849,-0.546079 z m 2.922292,0.483847 c -0.05576,0.06239 -0.07074,0.06027 -0.119467,0.07312 -0.03715,0.0098 -0.102593,0.142674 -0.121526,0.177878 l -5.15e-4,4.220316 c 0.09116,-0.02206 0.241508,-0.222996 0.241508,-0.222996 z m 9.846194,0.661726 c -1.050732,0.01579 -2.075347,0.375517 -3.187487,0.901835 -0.354549,0.167789 -0.750047,0.268705 -1.141625,0.28004 -0.900385,0.02606 -1.472282,0.0515 -2.658128,-0.49059 2.099244,1.526638 3.989252,0.656548 4.975364,0.01452 0.668746,-0.467637 2.12821,-0.726337 3.075745,-0.600531 -0.36034,-0.07776 -0.713628,-0.110538 -1.063869,-0.105274 z m 1.148834,0.118239 c 0.2349,0.0165 0.367066,0.08988 0.554077,0.110979 0.230864,0.02606 0.333326,0.08199 0.696716,0.01919 -0.409152,0.03727 -0.367658,-0.04981 -0.552017,-0.06897 -0.09426,-0.0098 -0.188762,-0.01572 -0.283218,-0.02334 -0.13991,0.0018 -0.274272,-0.02945 -0.415558,-0.03786 z m 6.356951,0.271225 c -0.01422,-3.84e-4 -0.0288,0.0032 -0.04274,0.01193 -0.05332,0.02695 -0.111625,0.04293 -0.170445,0.05186 0.0219,0.0077 0.04123,0.02214 0.06385,0.02852 0.04065,0.01434 0.07715,0.03887 0.118952,0.0503 0.05161,0.01846 0.107515,0.01147 0.161177,0.01037 0.05294,-0.01033 0.107452,-0.006 0.160661,-0.01452 -0.0338,-0.0011 -0.06286,-0.02229 -0.09372,-0.03371 -0.04055,-0.01501 -0.0798,-0.03315 -0.111742,-0.06327 -0.02386,-0.02119 -0.0547,-0.04064 -0.086,-0.04149 z m 0.873856,0.216254 c -0.06368,0.003 -0.122373,0.04305 -0.183319,0.06016 -0.06135,0.04329 -0.146924,0.06288 -0.215246,0.02437 h -5.15e-4 c -0.0026,0.02219 0.01194,0.04124 0.02678,0.05601 0.05664,0.07779 0.16554,0.09258 0.252322,0.06638 0.06579,-0.02801 0.137334,-0.03934 0.208551,-0.03578 0.117196,0.0077 0.21095,0.02437 0.315659,0.08661 0.102464,0.04963 -0.04394,-0.02794 0.363034,0.05912 -0.145883,-0.07537 -0.140437,-0.06976 -0.193103,-0.08609 -0.101143,-0.02789 -0.159387,-0.03992 -0.251807,-0.0892 -0.09032,-0.04941 -0.178799,-0.105359 -0.277553,-0.136909 -0.01527,-0.004 -0.03011,-0.0054 -0.0448,-0.0047 z m -8.788505,1.43443 c -1.055727,0.04178 -2.051564,0.458475 -2.692113,1.207805 -0.51519,0.739008 -0.772403,1.669746 -0.697231,2.567038 0.287594,-2.327673 1.663495,-3.444155 3.389344,-3.774843 z m -18.66611,0.03786 -0.08754,0.06482 c -0.01773,0.0098 -0.858104,0.385856 -0.949551,1.368569 -0.0013,0.01401 0.258886,-0.06055 0.257985,-0.04978 -0.0021,0.02558 -0.264165,0.128093 -0.264165,0.128093 l -0.280128,0.150392 -0.08033,1.02889 0.215246,0.216253 c 0,0 0.110632,0.05869 0.159632,0.112535 0.01196,0.01314 -0.195904,-0.04717 -0.204947,-0.02697 -0.08488,0.189659 -0.260815,0.578263 -0.401139,0.721883 -0.05164,0.05285 0.14279,0.05897 0.214215,0.1032 0.179855,0.111387 0.187551,0.06873 0.240993,0.355237 0.43054,-0.385655 0.508965,-0.654834 0.676118,-1.570821 0.0036,-0.01986 -0.157455,-0.04399 -0.153968,-0.06379 0.138462,-0.04973 0.598002,-0.189558 0.730187,-0.296117 -0.149383,-0.13453 -0.474956,-0.232979 -0.462417,-0.323602 0.05415,-0.391373 0.118229,-0.61594 0.212671,-0.867607 0.04497,-0.119844 0.210266,-0.280363 0.309479,-0.360423 -0.258812,-0.122238 -0.135885,-0.681419 -0.13234,-0.690767 z m 0.181775,0.02074 c -0.09571,0.292905 0.101696,0.361825 0.376937,0.46829 0.75232,-0.11753 1.366802,-0.118512 2.138551,-0.151948 -0.828529,-0.287662 -1.65237,-0.308111 -2.515488,-0.316342 z m 21.094573,0.0047 c -1.518477,-0.0036 -3.387455,0.277182 -4.557746,1.623199 -0.41402,0.481102 -0.777651,1.07168 -0.891363,1.756995 -0.121739,0.861753 0.262331,1.708887 0.860467,2.302556 0.12744,0.128404 0.269358,0.240473 0.421222,0.335012 0.932106,0.58095 2.285934,0.533021 3.131873,-0.240109 0.245135,-0.224028 0.425462,-0.498616 0.531935,-0.793967 0.256482,-0.722482 0.01055,-1.476013 -0.462933,-1.909462 -0.767799,-0.685233 -1.817895,-0.519334 -2.352252,-0.02852 -0.599619,0.581474 -0.401141,1.413782 -0.01184,1.764256 0.563594,0.476739 1.222487,0.229579 1.471187,-0.01971 0.315474,-0.352239 0.11626,-0.690522 0.01339,-0.837528 -0.103026,-0.147212 -0.174051,-0.175285 -0.174051,-0.175285 0,0 0.05844,0.04767 0.127191,0.202251 0.06835,0.153661 0.17969,0.495843 -0.08599,0.679358 -0.216078,0.179158 -0.762975,0.295468 -1.1442,-0.08194 -0.25527,-0.231544 -0.345456,-0.874803 0.07673,-1.230104 0.378022,-0.346583 1.219067,-0.433184 1.767794,0.07571 0.333907,0.298806 0.514382,0.881957 0.324928,1.396573 -0.07985,0.221524 -0.215988,0.430007 -0.403714,0.601568 -0.687542,0.628364 -1.788122,0.667201 -2.558229,0.187213 -0.121821,-0.07604 -0.235124,-0.165391 -0.335227,-0.266039 -0.506367,-0.518157 -0.853152,-1.223266 -0.743575,-1.892348 0.07503,-0.563535 0.39566,-1.088432 0.765203,-1.54904 1.19675,-1.512261 3.61716,-1.63358 5.199878,-1.605566 1.109054,0.02719 2.185597,0.191473 2.964517,0.326714 1.418801,0.247 2.235361,0.510815 2.235361,0.510815 0,0 -0.799796,-0.315056 -2.211673,-0.632166 -0.775908,-0.17458 -1.846801,-0.388868 -2.976876,-0.462067 -0.300245,-0.0215 -0.631572,-0.03754 -0.981994,-0.03838 z m 5.045911,0.105275 c -0.0067,4.69e-4 -0.01351,0.0021 -0.02008,0.0052 0.0085,0.03727 0.07623,0.03445 0.110713,0.04875 0.06411,0.01698 0.12413,0.03856 0.160146,0.09646 l 0.03914,0.01089 c 0.02904,0.0039 0.02714,-0.0014 0.106593,-0.02904 0.0012,-0.01312 -0.0779,-0.01743 -0.07518,-0.03734 -0.04276,-0.0036 -0.08407,-0.01606 -0.123071,-0.03371 -0.03531,-0.01844 -0.07398,-0.0279 -0.112257,-0.03786 -0.02758,-0.0068 -0.05713,-0.02537 -0.08599,-0.02334 z m 0.506702,0.09024 c 0.0052,0.0011 0.01075,0.0016 0.01596,0.0026 -0.005,-0.0018 -0.01033,-0.0026 -0.01596,-0.0026 z m 0.01751,0.0031 c 0.01423,0.0057 0.02643,0.01781 0.03862,0.02697 0.03693,0.035 0.08665,0.04865 0.12719,0.07831 0.05649,0.02748 0.121354,-0.0011 0.18126,-5.18e-4 0.05164,-0.02031 0.113724,0.0022 0.160146,-0.03008 0.0093,-0.0073 -0.05358,0.0089 -0.07312,-0.0031 -0.05649,-0.0074 -0.0798,-0.05072 -0.140064,-0.04927 -0.09808,-0.0052 -0.197124,-0.0039 -0.294032,-0.0223 z m 0.70547,0.965621 c 0.02411,0.02013 0.05993,0.03304 0.09114,0.04719 0.01683,0.0076 0.03412,0.01421 0.05149,0.02022 0.02688,0.0092 0.05636,0.01185 0.08187,0.02437 0.03896,0.01911 0.06928,0.05228 0.105563,0.07623 0.03992,0.02223 0.02549,0.01824 0.108653,0.08142 0.0059,0.0042 -0.03284,-0.05531 -0.0551,-0.07779 -0.03586,-0.03616 -0.08232,-0.05947 -0.123586,-0.0892 -0.03299,-0.02376 -0.04738,-0.04527 -0.09887,-0.07105 -0.04987,-0.02827 -0.10871,0.0083 -0.161177,-0.01141 z m -32.85326,0.06016 c -0.08987,4.86e-4 -0.179514,0.0023 -0.267255,0.001 -0.05013,-7.14e-4 -0.09974,7.6e-5 -0.148303,0.0016 -0.160668,0.03663 -0.581275,0.0034 -0.629773,0.230256 0.02905,0.213435 0.587352,0.449569 0.755934,0.566304 0.355827,0.160438 0.492131,0.148563 0.888274,0.13639 0.187034,-0.02475 0.377575,-0.02401 0.56489,-0.01452 0.05183,-0.139848 0.131982,-0.289102 0.13543,-0.437693 4.91e-4,-0.02136 -0.0026,-0.04795 -0.0067,-0.07571 -0.166464,-0.05874 -0.372255,-0.168213 -0.523181,-0.253074 -0.228097,-0.145063 -0.499711,-0.155997 -0.769322,-0.154541 z m 5.241588,0.130167 c -0.06724,0.09553 -0.130564,0.205665 -0.192588,0.432507 -0.0065,0.02379 0.0016,0.07147 0.01596,0.1032 0.01892,0.04168 0.04305,0.07753 0.08857,0.104756 0.146108,0.0874 0.414898,0.179484 0.53348,0.263964 0.02791,0.01988 0.326315,0.07587 0.563345,0.136391 -0.198797,0.0072 -0.56408,-0.0082 -0.619474,0.02334 -0.185912,0.106045 -0.575839,0.171907 -0.643162,0.262409 -0.132883,0.178632 -0.109221,0.352255 -0.08548,0.483848 l 1.465523,0.05082 0.531934,-0.535189 c 0.04119,-0.09957 -0.426371,-0.268113 -0.426371,-0.268113 0,0 0.497947,0.07413 0.588578,-0.0088 l -0.3481,-0.794486 z m 20.283541,0.231293 c -0.209154,0.004 -0.396543,0.0391 -0.540688,0.07364 -0.339355,0.07067 -0.514427,0.240109 -0.514427,0.240109 0,0 0.17101,-0.09886 0.529875,-0.12913 0.191255,-0.0094 0.452593,-0.0094 0.702895,0.05445 0.377298,0.09217 0.724231,0.321388 1.087041,0.6638 0.331799,0.307491 0.475807,0.798292 0.561286,1.325007 0.02306,0.160685 0.03776,0.3367 0.04223,0.529485 0.0051,0.21869 -0.02673,0.474954 -0.09732,0.730698 -0.05947,0.212503 -0.137092,0.414649 -0.245113,0.592753 -0.318134,0.522993 -0.753514,0.928181 -1.243068,1.146092 -1.230993,0.558297 -2.33217,0.222995 -2.33217,0.222995 0,0 1.021169,0.563852 2.453181,0.09594 0.585295,-0.195948 1.133087,-0.619049 1.516503,-1.214028 0.143457,-0.222625 0.244275,-0.466166 0.312054,-0.714622 0.08142,-0.294975 0.12104,-0.603226 0.114832,-0.870719 -0.0049,-0.210685 -0.02139,-0.406464 -0.04738,-0.587567 -0.07533,-0.59373 -0.313126,-1.179482 -0.773442,-1.560967 -0.425041,-0.343078 -0.873032,-0.545875 -1.310525,-0.590159 -0.07363,-0.0068 -0.146037,-0.0091 -0.215761,-0.0078 z m -21.923629,0.03423 c -0.16541,0.0028 -0.349242,0.03119 -0.438215,0.06638 -0.09912,0.274296 0.007,0.524368 0.152937,0.830268 0.172856,0.02913 0.188185,0.03067 0.35634,0.08194 l 0.01184,0.0099 c 0.0755,-0.532289 0.141477,-0.574263 0.170445,-0.961992 -0.06149,-0.0206 -0.154106,-0.02815 -0.253351,-0.02645 z m -1.059234,0.0036 c -0.168829,1.32e-4 -0.331908,0.01421 -0.44697,0.03475 0.01607,0.288435 0.133609,0.49818 0.308965,0.715141 0.186989,0.04008 0.489164,0.06336 0.678693,0.09179 -0.07883,-0.278566 -0.111573,-0.517415 -0.06025,-0.791374 -0.136909,-0.03667 -0.311615,-0.05044 -0.48044,-0.0503 z m -0.922775,0.001 c -0.05755,0.0016 -0.121304,0.0099 -0.211641,0.02593 -6.86e-4,0.160897 0.04371,0.334365 -0.0082,0.49785 0.251454,0.02516 0.467558,0.103004 0.684872,0.161283 0.04737,0.0127 -0.09714,-0.473397 -0.13234,-0.647724 -0.157832,-0.025 -0.236742,-0.04009 -0.332652,-0.03734 z m 5.257551,0.02178 0.332137,0.78204 7.789518,0.860347 c -7.773234,-0.766826 -7.627614,-0.709883 -8.38479,-0.06742 l 13.640282,0.713585 0.476836,-0.09335 z m -4.795649,1.018518 c -0.07887,0.532294 -0.214448,0.926028 -0.461902,1.381534 l 0.357884,-0.01089 c 0.269243,-0.455289 0.39431,-0.737733 0.561801,-1.258626 -0.250512,-0.01173 -0.457783,-0.112017 -0.457783,-0.112018 z M 85.703514,84.659969 c -0.470925,0 -0.900504,0.07282 -1.289413,0.218328 -0.386265,0.14551 -0.714197,0.351991 -0.984053,0.619201 -0.275147,0.269856 -0.485808,0.591029 -0.631318,0.964066 -0.145511,0.373035 -0.218335,0.779517 -0.218335,1.218695 0,0.470925 0.07673,0.888858 0.230178,1.253962 0.156093,0.3651 0.369187,0.670311 0.639043,0.916351 0.269855,0.24869 0.583635,0.43522 0.940797,0.55957 0.357163,0.12434 0.739346,0.18669 1.146775,0.18669 0.433886,0 0.908427,-0.0703 1.424328,-0.21055 0.518546,-0.14022 0.910532,-0.28933 1.175096,-0.44807 -0.0053,-0.11905 -0.0092,-0.2183 -0.01184,-0.29767 -0.0027,-0.082 -0.0041,-0.18924 -0.0041,-0.321531 v -0.65498 c 0,-0.08731 0.0171,-0.170593 0.05149,-0.249962 0.03439,-0.07937 0.105744,-0.136224 0.214216,-0.170617 0.09524,-0.03175 0.174924,-0.05269 0.238417,-0.06327 0.0635,-0.01059 0.135806,-0.02007 0.217821,-0.028 v -0.3096 h -2.924352 v 0.3096 c 0.07937,0.01058 0.178582,0.02805 0.297636,0.05186 0.119054,0.02381 0.218267,0.05423 0.297636,0.09127 0.10318,0.04762 0.171583,0.104477 0.205976,0.170617 0.03439,0.0635 0.05201,0.142783 0.05201,0.238033 v 1.14298 c -0.100534,0.0926 -0.242276,0.17439 -0.424826,0.24582 -0.179904,0.0688 -0.386143,0.1032 -0.61896,0.1032 -0.497381,0 -0.882512,-0.23391 -1.155013,-0.70218 -0.269856,-0.46828 -0.404744,-1.116633 -0.404744,-1.944726 0,-0.780466 0.137321,-1.39291 0.412468,-1.837378 0.277792,-0.444469 0.670736,-0.666912 1.178701,-0.666912 0.428594,0 0.78343,0.149626 1.063869,0.448584 0.280438,0.298958 0.520878,0.756801 0.721947,1.373236 h 0.349646 l -0.03605,-2.055705 h -0.345011 l -0.246142,0.218328 C 87.090148,84.939259 86.865335,84.85597 86.592834,84.779246 86.320332,84.699876 86.023653,84.65997 85.70353,84.65997 Z M 53.488616,96.581652 c -0.669988,0.157621 -1.172119,0.171543 -2.057191,0.208474 0.345133,0.201139 0.625597,0.228495 0.823392,0.261371 0.477567,0.117476 0.85507,0.0997 1.349146,0.03734 0.531894,-0.3266 0.06342,-0.460345 -0.115347,-0.507185 z m -2.01754,0.402428 c -0.07618,0.121189 -0.283306,0.445975 -0.366123,0.565267 -0.575829,0.8189 -1.472156,1.738596 -2.475324,2.180168 -0.119465,0.03734 -1.060779,0.248407 -1.060779,0.248407 0.396527,0.193108 0.469839,0.516258 0.571585,0.825608 0.0196,0.0596 0.665603,-0.27336 1.10249,-0.75144 0.864663,-0.878686 2.264198,-2.416658 2.548444,-2.972589 z m 39.26599,-10.921834 c -0.204932,0.527549 -0.43806,1.129038 -0.699805,1.804707 -0.261746,0.67567 -0.501237,1.284738 -0.718344,1.826489 -0.04261,0.10551 -0.08616,0.18858 -0.130795,0.24944 -0.04464,0.0588 -0.107822,0.11582 -0.188983,0.17062 -0.05073,0.0325 -0.115515,0.0586 -0.194648,0.0788 -0.07913,0.0183 -0.144984,0.0297 -0.197738,0.0337 v 0.21574 h 1.625155 v -0.21574 c -0.160293,-0.008 -0.304206,-0.0347 -0.432035,-0.0793 -0.127829,-0.0446 -0.192073,-0.1076 -0.192073,-0.18877 0,-0.0345 0.0053,-0.079 0.01545,-0.1338 0.01014,-0.0548 0.0282,-0.12589 0.05458,-0.21314 0.02841,-0.0893 0.06025,-0.18646 0.09475,-0.291971 0.03652,-0.10551 0.08274,-0.22928 0.139549,-0.37131 h 1.512898 l 0.358914,0.967701 c 0.0081,0.0203 0.01447,0.0436 0.01854,0.07 0.0041,0.0264 0.0062,0.0486 0.0062,0.0669 0,0.0446 -0.05309,0.0821 -0.158602,0.11253 -0.103481,0.0305 -0.234121,0.0511 -0.392385,0.0612 v 0.21626 h 1.79869 v -0.21626 c -0.05073,-0.002 -0.113395,-0.0123 -0.188469,-0.0306 -0.07508,-0.0203 -0.136137,-0.0447 -0.182804,-0.0731 -0.06898,-0.0467 -0.122623,-0.0945 -0.161176,-0.14314 -0.03855,-0.0487 -0.07307,-0.11223 -0.103504,-0.19136 l -1.439776,-3.725576 z m 12.433254,0 c -0.20493,0.527549 -0.43857,1.129038 -0.70032,1.804707 -0.26174,0.67567 -0.50072,1.284738 -0.71782,1.826489 -0.0426,0.10551 -0.0867,0.18858 -0.13131,0.24944 -0.0446,0.0588 -0.10731,0.11582 -0.18847,0.17062 -0.0507,0.0325 -0.11552,0.0586 -0.19465,0.0788 -0.0791,0.0183 -0.14498,0.0297 -0.19774,0.0337 v 0.21574 h 1.62516 v -0.21574 c -0.1603,-0.008 -0.30472,-0.0347 -0.43256,-0.0793 -0.12782,-0.0446 -0.19155,-0.1076 -0.19155,-0.18877 0,-0.0345 0.005,-0.079 0.0154,-0.1338 0.0101,-0.0548 0.0282,-0.12589 0.0546,-0.21314 0.0285,-0.0893 0.0598,-0.18646 0.0942,-0.291971 0.0365,-0.10551 0.0833,-0.22928 0.14007,-0.37131 h 1.51289 l 0.35892,0.967701 c 0.008,0.0203 0.0145,0.0436 0.0185,0.07 0.004,0.0264 0.006,0.0486 0.006,0.0669 0,0.0446 -0.0526,0.0821 -0.15809,0.11253 -0.10348,0.0305 -0.23412,0.0511 -0.39238,0.0612 v 0.21626 h 1.79869 v -0.21626 c -0.0507,-0.002 -0.11391,-0.0123 -0.18898,-0.0306 -0.0751,-0.0203 -0.13563,-0.0447 -0.18229,-0.0731 -0.069,-0.0467 -0.12316,-0.0945 -0.1617,-0.14314 -0.0385,-0.0487 -0.073,-0.11223 -0.1035,-0.19136 l -1.43926,-3.725576 z m -9.723118,0.06119 v 0.215735 c 0.05478,0.0041 0.123817,0.01818 0.207007,0.04252 0.08522,0.02232 0.151071,0.04566 0.197737,0.07001 0.06899,0.03247 0.114655,0.07534 0.136975,0.128093 0.02435,0.05275 0.03656,0.113558 0.03656,0.182545 v 3.092373 c 0,0.0791 -0.01433,0.14374 -0.04274,0.19447 -0.02637,0.0507 -0.06992,0.0893 -0.130795,0.11565 -0.03652,0.0163 -0.101312,0.0298 -0.194647,0.0399 -0.0913,0.0102 -0.161397,0.0173 -0.210097,0.0213 v 0.21626 h 3.374926 l 0.09166,-1.28456 h -0.216276 c -0.04261,0.11769 -0.119611,0.27186 -0.231208,0.46259 -0.109568,0.1887 -0.206207,0.32984 -0.289397,0.42317 -0.0284,0.0325 -0.07301,0.0596 -0.133885,0.0819 -0.05884,0.0203 -0.123631,0.0365 -0.194648,0.0487 -0.07304,0.0123 -0.150047,0.0204 -0.231209,0.0244 -0.08116,0.004 -0.159224,0.006 -0.234298,0.006 -0.166381,0 -0.296475,-0.005 -0.389811,-0.0156 -0.09131,-0.0121 -0.160339,-0.0361 -0.207006,-0.0726 -0.0487,-0.0406 -0.08003,-0.0976 -0.09423,-0.17062 -0.01217,-0.0751 -0.01802,-0.17983 -0.01802,-0.31375 v -2.90049 c 0,-0.06696 0.01221,-0.12941 0.03656,-0.18825 0.02638,-0.05884 0.07365,-0.100634 0.142638,-0.124981 0.04058,-0.01421 0.105885,-0.03049 0.195163,-0.04875 0.09131,-0.01829 0.165127,-0.0286 0.22194,-0.0306 v -0.215735 z m 4.007789,0 v 0.215735 c 0.05478,0.0041 0.123816,0.01818 0.207007,0.04252 0.08522,0.02232 0.15107,0.04566 0.197737,0.07001 0.06899,0.03247 0.114655,0.07534 0.136975,0.128093 0.02435,0.05275 0.03656,0.113558 0.03656,0.182545 v 3.092373 c 0,0.0791 -0.01433,0.14374 -0.04274,0.19447 -0.02638,0.0507 -0.06992,0.0893 -0.130795,0.11565 -0.03652,0.0163 -0.101312,0.0298 -0.194648,0.0399 -0.0913,0.0102 -0.161396,0.0173 -0.210096,0.0213 v 0.21626 h 3.375439 l 0.0911,-1.28456 h -0.21628 c -0.0426,0.11769 -0.11961,0.27186 -0.23121,0.46259 -0.10957,0.1887 -0.20569,0.32984 -0.28888,0.42317 -0.0284,0.0325 -0.073,0.0596 -0.13389,0.0819 -0.05884,0.0203 -0.124143,0.0365 -0.195159,0.0487 -0.07305,0.0123 -0.150047,0.0204 -0.231209,0.0244 -0.08116,0.004 -0.159224,0.006 -0.234298,0.006 -0.166381,0 -0.296476,-0.005 -0.389811,-0.0156 -0.09131,-0.0121 -0.159825,-0.0361 -0.206491,-0.0726 -0.0487,-0.0406 -0.08055,-0.0976 -0.09475,-0.17062 -0.01217,-0.0751 -0.01802,-0.17983 -0.01802,-0.31375 v -2.90049 c 0,-0.06696 0.01221,-0.12941 0.03656,-0.18825 0.02638,-0.05884 0.07417,-0.100634 0.143154,-0.124981 0.04058,-0.01421 0.10537,-0.03049 0.194648,-0.04875 0.09131,-0.01829 0.165126,-0.0286 0.22194,-0.0306 v -0.215735 z m 8.210739,0 v 0.215735 c 0.0771,0.0041 0.17747,0.03064 0.30124,0.07935 0.1258,0.04667 0.2251,0.103659 0.29815,0.170618 0.0548,0.05072 0.0983,0.122399 0.1308,0.215735 0.0325,0.09333 0.0489,0.186704 0.0489,0.28004 v 2.127788 c 0,0.28204 -0.0132,0.48182 -0.0396,0.5995 -0.0264,0.11567 -0.0752,0.20197 -0.14624,0.25877 -0.0325,0.0284 -0.11371,0.0605 -0.24357,0.097 -0.12984,0.0345 -0.22223,0.0541 -0.27703,0.0581 v 0.21626 h 1.77139 v -0.21626 c -0.0467,-0.002 -0.14279,-0.0221 -0.28888,-0.0607 -0.14609,-0.0385 -0.24273,-0.0803 -0.2894,-0.12498 -0.0649,-0.0568 -0.11326,-0.15235 -0.14572,-0.28627 -0.0304,-0.13392 -0.0458,-0.32554 -0.0458,-0.57512 v -2.227875 l 2.61744,3.533695 h 0.26468 V 87.32244 c 0,-0.221164 0.0122,-0.403573 0.0366,-0.547635 0.0264,-0.14406 0.0763,-0.24176 0.14934,-0.292487 0.0507,-0.03247 0.13464,-0.06395 0.25232,-0.09438 0.1177,-0.03047 0.2053,-0.04675 0.2621,-0.04875 v -0.215735 h -1.75646 v 0.215735 c 0.067,0.0041 0.16466,0.02468 0.29249,0.06119 0.12987,0.03652 0.22281,0.07398 0.27961,0.112535 0.0609,0.04464 0.1076,0.134761 0.14006,0.270706 0.0325,0.133917 0.0489,0.326632 0.0489,0.578232 v 2.054661 l -2.42898,-3.293063 z m 4.99956,0 v 1.171504 h 0.21319 c 0.0183,-0.06696 0.0507,-0.151104 0.0973,-0.252556 0.0467,-0.10348 0.10083,-0.200661 0.1617,-0.291968 0.0609,-0.09131 0.12672,-0.172723 0.19773,-0.243739 0.073,-0.07305 0.14314,-0.113756 0.2101,-0.121869 0.0852,-0.01017 0.17444,-0.01615 0.26777,-0.01815 0.0933,-0.0041 0.17136,-0.0062 0.2343,-0.0062 h 0.17662 v 3.481834 c 0,0.0832 -0.0165,0.15049 -0.0489,0.20122 -0.0304,0.0487 -0.0793,0.0861 -0.14624,0.11253 -0.0446,0.0183 -0.12537,0.0334 -0.24305,0.0456 -0.11567,0.0122 -0.20222,0.0204 -0.25902,0.0244 v 0.21626 h 2.03917 v -0.21626 c -0.0649,-0.002 -0.15626,-0.0156 -0.27395,-0.0399 -0.11565,-0.0243 -0.19159,-0.0434 -0.22812,-0.0576 -0.071,-0.0304 -0.12093,-0.0728 -0.14933,-0.12758 -0.0284,-0.0568 -0.0422,-0.1187 -0.0422,-0.18565 v -3.454874 h 0.17611 c 0.0812,0 0.16984,0.0022 0.2652,0.0062 0.0954,0.0041 0.17452,0.01004 0.23739,0.01815 0.067,0.01014 0.13599,0.05085 0.207,0.121869 0.0731,0.06899 0.13996,0.150403 0.20083,0.243739 0.0588,0.08928 0.11142,0.184293 0.15809,0.285745 0.0487,0.09942 0.0821,0.185733 0.10041,0.258779 h 0.2101 v -1.171504 z m -20.004435,0.879535 0.65449,1.674016 h -1.296622 z m 12.433255,0 0.65449,1.674016 h -1.29662 z m -1.75234,3.954791 c -0.3332,0.58384 -0.71246,1.24934 -1.13802,1.9971 -0.440233,0.77245 -0.84682,1.58878 -1.38056,2.29737 -0.260029,0.23328 -0.407051,0.29929 -0.696715,0.31324 v 0.23907 h 2.144735 v -0.23907 c -0.12517,-0.004 -0.765207,-0.0442 -0.765207,-0.29664 0,-0.0382 0.0083,-0.0872 0.02472,-0.1478 0.01654,-0.0606 0.04624,-0.13942 0.08908,-0.23596 0.04619,-0.0988 0.09735,-0.20683 0.153452,-0.3236 0.05938,-0.11676 0.135231,-0.25353 0.227605,-0.41073 h 2.45936 l 0.58394,1.0709 c 0.0132,0.0225 0.0224,0.0486 0.0293,0.0778 0.007,0.0291 0.0103,0.054 0.0103,0.0742 0,0.14686 -0.5182,0.18585 -0.64625,0.19188 v 0.23907 h 2.4264 v -0.23907 c -0.35674,-0.01 -0.56986,-0.10276 -0.7858,-0.48489 l -2.3404,-4.12282 z m -14.81641,0.0669 v 0.23959 c 0.342757,0.0174 0.691567,0.10045 0.691567,0.46829 v 3.4222 c 0,0.34644 -0.05526,0.37751 -0.691567,0.41073 v 0.23907 h 5.239014 l 0.148818,-1.42147 h -0.351705 c -0.132481,0.24908 -0.313321,0.76363 -0.596817,0.98014 -0.305309,0.23743 -1.987493,0.17555 -2.174082,0.1618 -0.47744,-0.0432 -0.519576,-0.20287 -0.519576,-0.6166 v -3.2101 c 0,-0.45756 0.324242,-0.40104 0.720918,-0.43406 v -0.23959 z m 5.759105,0 v 0.23959 c 0.367508,0.034 0.666649,0.0157 0.749754,0.45429 v 3.43568 c 0,0.29021 -0.06582,0.34832 -0.749754,0.41125 v 0.23907 h 5.579905 l 0.133369,-1.40798 H 97.6414 c -0.05669,0.12678 -0.183514,0.71532 -0.546868,0.9734 -0.283815,0.20464 -2.453364,0.22417 -2.788407,0.0576 -0.08581,-0.0427 -0.143326,-0.10568 -0.173021,-0.18877 -0.107718,-0.58205 -0.01501,-1.1851 -0.0448,-1.77515 0.43495,0 1.024497,-0.0247 1.45574,0.0405 0.53925,0.11011 0.479229,0.6963 0.489194,0.77477 h 0.371273 v -1.86953 h -0.371273 c -0.03399,0.19899 -0.0079,0.60914 -0.449544,0.73433 -0.445243,0.0699 -1.045273,0.0452 -1.49539,0.0472 v -1.8996 c 0.651334,0 1.553603,-0.0159 2.20395,0.027 0.435368,0.0395 0.69003,0.56176 0.804853,0.85879 h 0.371273 v -1.15231 z m 12.871475,5.2e-4 v 0.23907 c 0.3548,0.0316 0.67913,0.0189 0.75078,0.45481 v 3.44916 c 0,0.32341 -0.34184,0.37657 -0.75078,0.39725 v 0.23907 h 2.54484 v -0.23907 c -0.3661,-0.0278 -0.72433,-0.0611 -0.73997,-0.43459 v -1.64705 h 0.80639 c 0.21115,0 0.54054,0.0158 0.689,0.0472 0.56153,0.10801 0.50014,0.64654 0.51339,0.77841 h 0.37642 v -1.87624 h -0.37642 c -0.0926,0.36873 -0.10188,0.63235 -0.48353,0.72759 -0.13526,0.0336 -0.47474,0.0503 -0.71886,0.0503 h -0.80639 v -1.91983 c 0.67274,-0.001 1.7954,-0.0169 2.46708,0.027 0.45248,0.0454 0.69828,0.60443 0.81464,0.90236 h 0.37127 v -1.19536 z m -3.93776,0.9734 1.06387,1.85241 h -2.10817 z"
       transform="matrix(1.0035401,0,0,0.99647239,29.730834,-6.9534663)" /></g></svg>
